<svg width="1560" height="1095" viewBox="0 0 1560 1095" fill="none" xmlns="http://www.w3.org/2000/svg">
<g opacity="0.02" clip-path="url(#clip0_130_817)">
<path d="M211.109 0H0V1366.37H211.109V0Z" fill="white"/>
<path d="M869.073 0H583.38V197.307H869.073C893.64 197.307 939.174 202.881 993.285 218.516C1055.59 236.519 1114.56 263.699 1163.82 297.111C1221.46 336.206 1266.61 384.127 1298.02 439.558C1336.39 507.267 1355.84 589.232 1355.84 683.188C1355.84 777.143 1336.38 859.115 1298.02 926.817C1266.61 982.248 1221.46 1030.17 1163.82 1069.26C1114.56 1102.68 1055.59 1129.86 993.285 1147.85C939.174 1163.49 893.64 1169.06 869.073 1169.06H543.204V695.81H332.088V1366.37H869.073C1045.11 1366.37 1558.78 1233.33 1558.78 683.181C1558.78 133.03 1045.11 0 869.073 0Z" fill="white"/>
</g>
<defs>
<clipPath id="clip0_130_817">
<rect width="1560" height="1095" fill="white"/>
</clipPath>
</defs>
</svg>
