<svg width="60" height="22" viewBox="0 0 60 22" fill="none" xmlns="http://www.w3.org/2000/svg">
<g opacity="0.4" clip-path="url(#clip0_130_787)">
<path d="M0 4.74571C0 5.17524 0.346552 5.51571 0.781034 5.51571H6.15517C6.58965 5.51571 6.93621 5.85619 6.93621 6.28571V21.1776C6.93621 21.6071 7.28276 21.9476 7.71724 21.9476H12.7138C13.1483 21.9476 13.4948 21.6071 13.4948 21.1776V6.25952C13.4948 5.83 13.8414 5.48952 14.2759 5.48952H19.65C20.0845 5.48952 20.431 5.14905 20.431 4.71952V0.77C20.431 0.340476 20.0845 0 19.65 0H0.868965C0.346552 0 0 0.340476 0 0.77V4.74048V4.74571Z" fill="white"/>
<path d="M34.9755 5.30619C36.3203 5.19095 37.841 5.19095 38.3272 5.30619C38.8134 5.39 39.2169 5.44762 39.2169 5.39C39.2169 5.33238 39.2169 4.70381 39.2479 3.98619C39.2789 3.26857 39.3617 2.3781 39.5065 2.00619C39.6514 1.63429 39.8789 1.20476 40.0496 1.0319C40.2203 0.859048 40.4531 0.66 40.5669 0.570952C40.6807 0.487143 40.9962 0.314286 41.2548 0.199048C41.5134 0.0838095 41.5393 0 41.3117 0H24.6048C23.9479 0 23.4307 0.345714 23.4307 0.775238V21.031C23.4307 21.5181 23.772 21.9476 24.2324 21.9476H30.1031C30.1341 21.9476 29.9893 21.4029 29.7876 20.7114C29.5858 20.0252 29.4462 18.6738 29.4462 17.6995C29.4772 16.7252 29.5341 15.9186 29.56 15.9186H32.11C33.4548 15.9186 34.8307 15.8348 35.1151 15.7457C35.3996 15.6305 35.6893 15.3162 35.7462 15.0019C35.8031 14.6876 35.8341 13.8233 35.8341 13.0533V11.5919C35.8341 11.5343 35.6065 11.5081 35.291 11.5081H34.2048C33.8893 11.5081 33.0307 11.3352 32.2858 11.1624C31.541 10.9633 30.6255 10.3295 30.2789 9.78476C29.9376 9.24 29.5651 8.15048 29.4462 7.43286C29.3583 6.71524 29.2755 5.91381 29.2755 5.68333C29.2755 5.45286 29.3065 5.25381 29.3324 5.25381H29.8755C30.1341 5.25381 30.8479 5.31143 31.422 5.36905C31.9962 5.42667 33.5686 5.39524 34.9445 5.28524L34.9755 5.31143V5.30619Z" fill="white"/>
<path d="M53.084 2.34143C52.6547 1.05286 51.5685 0 50.684 0H45.6254C45.5943 0 45.4237 0.0576191 45.284 0.115238C45.1392 0.172857 44.9116 0.345714 44.8288 0.487143C44.7409 0.628571 44.6581 0.885238 44.6581 1.0319C44.6581 1.17857 44.5702 1.85952 44.5133 2.54571C44.4564 3.2319 44.4254 4.6881 44.4564 5.86143C44.4875 7.03476 44.2288 8.94667 43.8564 10.12C43.484 11.3195 42.6564 12.891 42.0254 13.6662C41.3944 14.4362 40.3961 15.3529 39.8271 15.751C39.2581 16.149 38.7719 16.9243 38.7409 17.5214C38.7099 18.1238 38.5702 19.1243 38.4564 19.7529C38.3426 20.3814 38.2288 20.8948 38.1978 20.9262C38.1978 20.9262 38.084 21.1567 37.9702 21.4395C37.8564 21.7276 37.8254 21.9267 37.8823 21.9267H43.4271C43.7116 21.9267 44.0271 21.6962 44.1409 21.3819C44.2288 21.0938 44.3426 20.6695 44.3995 20.4967C44.4564 20.2976 44.5702 19.8943 44.6581 19.6114C44.7461 19.3233 45.1133 19.0981 45.5168 19.0981H52.034C52.3754 19.0981 52.7478 19.3862 52.8357 19.7529C52.9495 20.0933 53.0633 20.4967 53.0944 20.6381C53.1254 20.7795 53.2392 21.1252 53.3219 21.4081C53.4099 21.6962 53.7512 21.9529 54.0926 21.9529H58.9237C59.3219 21.9529 59.5806 21.6648 59.4668 21.2981C59.353 20.9262 58.8978 19.5852 58.4685 18.2967L53.0944 2.34667L53.084 2.34143ZM47.0271 13.9752C46.6547 13.9752 46.4581 13.6348 46.5719 13.2314C46.6857 12.8333 47.115 11.4295 47.5133 10.1148L47.5443 10.0571C47.9426 8.76857 48.3719 7.31238 48.5168 6.82524C48.6616 6.3381 48.8892 6.36952 49.0288 6.85143C49.1737 7.33857 49.5978 8.79476 50.0012 10.0833C50.3995 11.3719 50.803 12.7705 50.9168 13.1686C51.0306 13.5667 50.8857 13.9124 50.5754 13.9124H48.8633C48.2323 13.97 47.4047 13.97 47.0323 13.97L47.0271 13.9752Z" fill="white"/>
<path d="M42.057 2.4418C42.3881 2.4418 42.657 2.16942 42.657 1.83418C42.657 1.49894 42.3881 1.22656 42.057 1.22656C41.726 1.22656 41.457 1.49894 41.457 1.83418C41.457 2.16942 41.726 2.4418 42.057 2.4418Z" fill="white"/>
</g>
<defs>
<clipPath id="clip0_130_787">
<rect width="60" height="22" fill="white"/>
</clipPath>
</defs>
</svg>
