<svg width="435" height="96" viewBox="0 0 435 96" fill="none" xmlns="http://www.w3.org/2000/svg">
<g clip-path="url(#clip0_130_656)">
<path d="M14.6605 0H0V95.6043H14.6605V0Z" fill="white"/>
<path d="M60.3525 0H40.5125V13.8055H60.3525C62.0586 13.8055 65.2207 14.1954 68.9785 15.2894C73.3054 16.5491 77.4005 18.4508 80.8215 20.7886C84.8239 23.5241 87.9595 26.8771 90.1407 30.7555C92.8052 35.4931 94.1558 41.2281 94.1558 47.8021C94.1558 54.3761 92.8047 60.1117 90.1407 64.8487C87.9595 68.7272 84.8239 72.0802 80.8215 74.8156C77.4005 77.1535 73.3054 79.0552 68.9785 80.3144C65.2207 81.4084 62.0586 81.7983 60.3525 81.7983H37.7225V48.6853H23.0615V95.6038H60.3525C72.5774 95.6038 108.249 86.2953 108.249 47.8017C108.249 9.30801 72.5774 0 60.3525 0Z" fill="white"/>
<path d="M213.285 23.207L193.812 79.0522L174.34 23.207H162.553L144.29 75.582L126.028 23.207H114.241L133.684 78.9668H154.897L168.446 40.1081L187.919 95.9533H199.705L225.071 23.207H213.285Z" fill="white"/>
<path d="M410.502 23.207H376.947V33.6657H410.502C418.112 33.6657 424.303 39.7307 424.303 47.1849C424.303 54.6392 418.112 60.7042 410.502 60.7042H376.947V95.9533H388.015V71.1628H410.501C424.02 71.1628 434.979 60.4276 434.979 47.1849C434.979 33.9423 424.02 23.207 410.501 23.207H410.502Z" fill="white"/>
<path d="M291.59 95.9533L272.996 70.4535C283.651 67.8578 291.547 58.4254 291.547 47.1849C291.547 33.9423 280.588 23.207 267.069 23.207H233.515V33.6657H267.069C274.679 33.6657 280.87 39.7307 280.87 47.1849C280.87 54.6392 274.679 60.7042 267.069 60.7042H233.515V95.9533H244.582V71.1628H259.911L277.989 95.9533H291.59Z" fill="white"/>
<path d="M309.311 95.9543L315.704 82.7419H351.512L357.905 95.9543H371.025L333.608 18.6289L327.048 32.1851L346.266 71.9005H320.95H310.574H307.83L296.191 95.9543H309.311Z" fill="white"/>
</g>
<defs>
<clipPath id="clip0_130_656">
<rect width="435" height="96" fill="white"/>
</clipPath>
</defs>
</svg>
