<svg width="150" height="33" viewBox="0 0 150 33" fill="none" xmlns="http://www.w3.org/2000/svg">
<g clip-path="url(#clip0_90_1599)">
<path d="M5.05534 0H0V32.864H5.05534V0Z" fill="white"/>
<path d="M20.8111 0H13.9697V4.74563H20.8111C21.3994 4.74563 22.4898 4.87967 23.7856 5.25573C25.2776 5.68874 26.6897 6.34247 27.8694 7.14609C29.2495 8.0864 30.3308 9.23901 31.0829 10.5722C32.0017 12.2008 32.4674 14.1722 32.4674 16.432C32.4674 18.6918 32.0015 20.6634 31.0829 22.2918C30.3308 23.625 29.2495 24.7776 27.8694 25.7179C26.6897 26.5215 25.2776 27.1752 23.7856 27.6081C22.4898 27.9841 21.3994 28.1182 20.8111 28.1182H13.0077V16.7356H7.95215V32.8638H20.8111C25.0266 32.8638 37.3272 29.664 37.3272 16.4318C37.3272 3.19963 25.0266 0 20.8111 0Z" fill="white"/>
<path d="M73.5465 7.97745L66.8317 27.1742L60.1171 7.97745H56.0528L49.7553 25.9813L43.4579 7.97745H39.3936L46.098 27.1448H53.4127L58.085 13.7872L64.7996 32.984H68.8639L77.6108 7.97745H73.5465Z" fill="white"/>
<path d="M141.552 7.97745H129.981V11.5726H141.552C144.176 11.5726 146.311 13.6574 146.311 16.2199C146.311 18.7823 144.176 20.8671 141.552 20.8671H129.981V32.984H133.798V24.4623H141.552C146.213 24.4623 149.992 20.772 149.992 16.2199C149.992 11.6677 146.213 7.97745 141.552 7.97745H141.552Z" fill="white"/>
<path d="M100.549 32.984L94.1366 24.2184C97.8107 23.3262 100.533 20.0838 100.533 16.2199C100.533 11.6677 96.7545 7.97745 92.0929 7.97745H80.5225V11.5726H92.0929C94.7171 11.5726 96.8519 13.6574 96.8519 16.2199C96.8519 18.7823 94.7171 20.8671 92.0929 20.8671H80.5225V32.984H84.3388V24.4623H89.6247L95.8584 32.984H100.549Z" fill="white"/>
<path d="M106.659 32.984L108.864 28.4422H121.211L123.416 32.984H127.94L115.037 6.40339L112.776 11.0633L119.402 24.7155H110.673H107.095H106.149L102.135 32.984H106.659Z" fill="white"/>
</g>
<defs>
<clipPath id="clip0_90_1599">
<rect width="150" height="33" fill="white"/>
</clipPath>
</defs>
</svg>
