<svg width="220" height="50" viewBox="0 0 220 50" fill="none" xmlns="http://www.w3.org/2000/svg">
<g opacity="0.04" clip-path="url(#clip0_130_512)">
<path d="M7.41449 0H0V49.7939H7.41449V0Z" fill="white"/>
<path d="M30.5229 0H20.4889V7.19035H30.5229C31.3857 7.19035 32.985 7.39345 34.8854 7.96323C37.0738 8.61931 39.1449 9.60981 40.875 10.8274C42.8992 12.2521 44.4851 13.9985 45.5882 16.0185C46.9357 18.486 47.6188 21.473 47.6188 24.8969C47.6188 28.3209 46.9355 31.3082 45.5882 33.7754C44.4851 35.7954 42.8992 37.5418 40.875 38.9665C39.1449 40.1841 37.0738 41.1746 34.8854 41.8304C32.985 42.4002 31.3857 42.6033 30.5229 42.6033H19.0778V25.3569H11.6631V49.7936H30.5229C36.7056 49.7936 54.7464 44.9455 54.7464 24.8967C54.7464 4.84792 36.7056 0 30.5229 0Z" fill="white"/>
<path d="M107.868 12.0869L98.02 41.173L88.172 12.0869H82.2109L72.9745 39.3656L63.7384 12.0869H57.7773L67.6105 41.1284H78.3388L85.1914 20.8896L95.0395 49.9756H101.001L113.829 12.0869H107.868Z" fill="white"/>
<path d="M207.61 12.0869H190.64V17.5341H207.61C211.458 17.5341 214.589 20.693 214.589 24.5754C214.589 28.4579 211.458 31.6167 207.61 31.6167H190.64V49.9756H196.237V37.0639H207.609C214.446 37.0639 219.989 31.4726 219.989 24.5754C219.989 17.6782 214.446 12.0869 207.609 12.0869H207.61Z" fill="white"/>
<path d="M147.471 49.9756L138.067 36.6945C143.456 35.3425 147.449 30.4298 147.449 24.5754C147.449 17.6782 141.907 12.0869 135.07 12.0869H118.1V17.5341H135.07C138.918 17.5341 142.049 20.693 142.049 24.5754C142.049 28.4579 138.918 31.6167 135.07 31.6167H118.1V49.9756H123.697V37.0639H131.45L140.592 49.9756H147.471Z" fill="white"/>
<path d="M156.433 49.9758L159.666 43.0943H177.776L181.009 49.9758H187.645L168.721 9.70215L165.404 16.7627L175.123 37.4478H162.319H157.072H155.684L149.798 49.9758H156.433Z" fill="white"/>
</g>
<defs>
<clipPath id="clip0_130_512">
<rect width="220" height="50" fill="white"/>
</clipPath>
</defs>
</svg>
