<svg width="150" height="26" viewBox="0 0 150 26" fill="none" xmlns="http://www.w3.org/2000/svg">
<path d="M40.0369 20.7578H42.5709V5.82251H38.8791C35.1674 5.82251 33.2222 7.77501 33.2222 10.6563C33.2222 12.9546 34.2874 14.3105 36.1995 15.707L32.8848 20.7578H35.6305L39.3224 15.1037L38.0454 14.2223C36.4906 13.1512 35.7364 12.3105 35.7364 10.5072C35.7364 8.91397 36.828 7.8428 38.9055 7.8428H40.0369V20.7578ZM88.964 20.9679C90.1219 20.9679 90.9357 20.7578 91.5443 20.3035V18.2222C90.9158 18.6697 90.1616 18.9476 89.1162 18.9476C87.3298 18.9476 86.5954 17.5307 86.5954 15.3003C86.5954 12.9546 87.5018 11.7546 89.136 11.7546C90.102 11.7546 91.0415 12.0936 91.5443 12.419V10.2495C91.0217 9.94445 90.102 9.73429 88.8648 9.73429C85.6757 9.73429 84.0151 12.0732 84.0151 15.3613C84.0151 18.9748 85.6294 20.9679 88.964 20.9679ZM73.3629 20.0256V17.9375C72.5888 18.4799 71.2854 18.9476 70.068 18.9476C68.242 18.9476 67.5539 18.0731 67.448 16.263H73.4688V14.9138C73.4688 11.1512 71.8544 9.73429 69.3535 9.73429C66.3166 9.73429 64.8677 12.1139 64.8677 15.3816C64.8677 19.1442 66.6739 20.9679 69.8629 20.9679C71.4508 20.9679 72.6285 20.5408 73.3629 20.0256ZM81.3355 20.7578H84.1606L80.1578 15.0155L83.6843 9.94445H81.1635L77.6436 15.0155V9.94445H75.1427V20.7578H77.6436V15.5308L81.3355 20.7578ZM64.259 18.7375H63.1474V9.94445H55.8696V10.8732C55.8696 13.5105 55.7042 16.9273 54.8242 18.7375H54.0435V23.2255H56.3526V20.7578H61.9499V23.2255H64.259V18.7375ZM50.5038 9.94445V14.2223H47.1692V9.94445H44.6683V20.7578H47.1692V16.2426H50.5038V20.7578H52.9981V9.94445H50.5038ZM69.3138 11.7546C70.551 11.7546 70.9281 12.8054 70.9281 14.1613V14.3715H67.448C67.5142 12.6563 68.1162 11.7546 69.3138 11.7546ZM60.6531 18.7375H57.1267C57.8214 17.1036 58.0132 14.1613 58.0132 12.2902V11.9647H60.6531V18.7375ZM104.572 20.7578H107.529L102.349 12.9139L107.046 5.82251H104.466L99.9536 12.6969V5.82251H97.4196V20.7578H99.9536V13.7478L104.572 20.7578ZM116.044 13.3817C116.044 10.7648 114.741 9.77496 112.101 9.77496C110.447 9.77496 109.144 10.3105 108.389 10.7648V12.8935C109.058 12.3715 110.526 11.8156 111.81 11.8156C113.001 11.8156 113.55 12.2427 113.55 13.4088V14.0054H113.146C109.329 14.0054 107.635 15.3003 107.635 17.49C107.635 19.6798 108.932 20.9069 110.864 20.9069C112.333 20.9069 112.961 20.412 113.444 19.8968H113.55C113.57 20.1747 113.656 20.5408 113.735 20.7578H116.17C116.084 19.8764 116.044 18.9951 116.044 18.1138V13.3817ZM113.55 18.1748C113.232 18.6493 112.644 19.0358 111.764 19.0358C110.718 19.0358 110.189 18.4324 110.189 17.5104C110.189 16.2833 111.049 15.8358 113.193 15.8358H113.55V18.1748ZM120.365 9.94445H118.056V23.8696H120.55V19.49C121.185 20.4527 122.105 20.9679 123.177 20.9679C125.605 20.9679 127.285 18.9748 127.285 15.3409C127.285 11.7275 125.651 9.73429 123.302 9.73429C122.125 9.73429 121.159 10.2902 120.49 11.341L120.365 9.94445ZM122.548 18.9476C121.225 18.9476 120.55 17.8561 120.55 15.3613C120.55 12.8461 121.265 11.7546 122.674 11.7546C124.037 11.7546 124.705 12.8461 124.705 15.3409C124.705 17.8561 123.99 18.9476 122.548 18.9476ZM136.072 11.9647V9.94445H127.702V11.9647H130.64V20.7578H133.134V11.9647H136.072ZM137.54 9.94445V20.7578H141.338C143.793 20.7578 145.533 19.4697 145.533 16.9273C145.533 14.5206 143.978 13.2529 141.378 13.2529H140.035V9.94445H137.54ZM146.453 9.94445V20.7578H148.953V9.94445H146.453ZM141.193 18.7375H140.035V15.2731H141.252C142.324 15.2731 142.953 15.768 142.953 17.0155C142.953 18.2629 142.258 18.7375 141.193 18.7375Z" fill="white"/>
<path d="M13.0443 1.625C7.64139 1.625 3.26172 5.99007 3.26172 11.375C3.26172 14.0665 4.3559 16.5035 6.12558 18.2678C7.89574 20.033 12.0661 22.5875 12.3106 25.2688C12.3473 25.6708 12.6393 26 13.0443 26C13.4493 26 13.7414 25.6708 13.778 25.2688C14.0226 22.5875 18.1929 20.033 19.9631 18.2678C21.7328 16.5035 22.8269 14.0665 22.8269 11.375C22.8269 5.99007 18.4473 1.625 13.0443 1.625Z" fill="#FF4433"/>
<path d="M13.0431 14.7876C14.934 14.7876 16.4669 13.2598 16.4669 11.3751C16.4669 9.49047 14.934 7.96265 13.0431 7.96265C11.1521 7.96265 9.61914 9.49047 9.61914 11.3751C9.61914 13.2598 11.1521 14.7876 13.0431 14.7876Z" fill="white"/>
</svg>
