<svg width="57" height="38" viewBox="0 0 57 38" fill="none" xmlns="http://www.w3.org/2000/svg">
<g clip-path="url(#clip0_90_1629)">
<path d="M6.96645 34.466H9.79745L4.83845 27.1383L9.33511 20.5137H6.86511L2.54578 26.9357V20.5137H0.120117V34.466H2.54578V27.9173L6.96645 34.466ZM17.9484 27.5753C17.9484 25.1307 16.7008 24.206 14.1738 24.206C12.5904 24.206 11.3428 24.7063 10.6208 25.1307V27.1193C11.2604 26.6317 12.6665 26.1123 13.8951 26.1123C15.0351 26.1123 15.5608 26.5113 15.5608 27.6007V28.158H15.1744C11.5201 28.158 9.89878 29.3677 9.89878 31.4133C9.89878 33.459 11.1401 34.6053 12.9895 34.6053C14.3955 34.6053 14.9971 34.143 15.4595 33.6617H15.5608C15.5798 33.9213 15.6621 34.2633 15.7381 34.466H18.0688C17.9864 33.6427 17.9484 32.8193 17.9484 31.996V27.5753ZM15.5608 32.053C15.2568 32.4963 14.6931 32.8573 13.8508 32.8573C12.8501 32.8573 12.3434 32.2937 12.3434 31.4323C12.3434 30.286 13.1668 29.868 15.2188 29.868H15.5608V32.053ZM22.0841 24.3643H19.8738V37.373H22.2614V33.2817C22.8694 34.181 23.7498 34.6623 24.7758 34.6623C27.1001 34.6623 28.7088 32.8003 28.7088 29.4057C28.7088 26.03 27.1445 24.168 24.8961 24.168C23.7688 24.168 22.8441 24.6873 22.2045 25.669L22.0841 24.3643ZM24.1741 32.775C22.9075 32.775 22.2614 31.7553 22.2614 29.4247C22.2614 27.075 22.9455 26.0553 24.2945 26.0553C25.5991 26.0553 26.2388 27.075 26.2388 29.4057C26.2388 31.7553 25.5548 32.775 24.1741 32.775ZM37.1195 26.2517V24.3643H29.1078V26.2517H31.9198V34.466H34.3075V26.2517H37.1195ZM38.5255 24.3643V34.466H42.1608C44.5105 34.466 46.1761 33.2627 46.1761 30.8877C46.1761 28.6393 44.6878 27.455 42.1988 27.455H40.9131V24.3643H38.5255ZM47.0565 24.3643V34.466H49.4505V24.3643H47.0565ZM42.0215 32.5787H40.9131V29.3423H42.0785C43.1045 29.3423 43.7061 29.8047 43.7061 30.97C43.7061 32.1353 43.0411 32.5787 42.0215 32.5787Z" fill="white"/>
<path d="M7.25796 14.1993H9.68362V0.247002H6.14962C2.59662 0.247002 0.734621 2.071 0.734621 4.76267C0.734621 6.90967 1.75429 8.17633 3.58462 9.481L0.411621 14.1993H3.03995L6.57396 8.91734L5.35162 8.094C3.86329 7.09334 3.14129 6.308 3.14129 4.62334C3.14129 3.135 4.18629 2.13433 6.17496 2.13433H7.25796V14.1993ZM54.093 14.3957C55.2013 14.3957 55.9803 14.1993 56.563 13.775V11.8307C55.9613 12.2487 55.2393 12.5083 54.2386 12.5083C52.5286 12.5083 51.8256 11.1847 51.8256 9.101C51.8256 6.90967 52.6933 5.78867 54.2576 5.78867C55.1823 5.78867 56.0816 6.10534 56.563 6.40934V4.38267C56.0626 4.09767 55.1823 3.90134 53.998 3.90134C50.9453 3.90134 49.3556 6.08633 49.3556 9.158C49.3556 12.5337 50.901 14.3957 54.093 14.3957ZM39.159 13.5153V11.5647C38.418 12.0713 37.1703 12.5083 36.005 12.5083C34.257 12.5083 33.5983 11.6913 33.497 10.0003H39.2603V8.74C39.2603 5.225 37.715 3.90134 35.321 3.90134C32.414 3.90134 31.027 6.12433 31.027 9.177C31.027 12.692 32.756 14.3957 35.8086 14.3957C37.3286 14.3957 38.456 13.9967 39.159 13.5153ZM46.7906 14.1993H49.495L45.6633 8.835L49.039 4.09767H46.626L43.2566 8.835V4.09767H40.8626V14.1993H43.2566V9.31633L46.7906 14.1993ZM30.4443 12.312H29.3803V4.09767H22.4136V4.96533C22.4136 7.429 22.2553 10.621 21.413 12.312H20.6656V16.5047H22.876V14.1993H28.234V16.5047H30.4443V12.312ZM17.2773 4.09767V8.094H14.0853V4.09767H11.6913V14.1993H14.0853V9.98134H17.2773V14.1993H19.665V4.09767H17.2773ZM35.283 5.78867C36.4673 5.78867 36.8283 6.77034 36.8283 8.037V8.23334H33.497C33.5603 6.631 34.1366 5.78867 35.283 5.78867ZM26.9926 12.312H23.617C24.282 10.7857 24.4656 8.037 24.4656 6.289V5.985H26.9926V12.312Z" fill="white"/>
</g>
<defs>
<clipPath id="clip0_90_1629">
<rect width="57" height="38" fill="white"/>
</clipPath>
</defs>
</svg>
