<svg width="92" height="42" viewBox="0 0 92 42" fill="none" xmlns="http://www.w3.org/2000/svg">
<path d="M71.512 18.256C70.5627 18.256 69.7467 18.0533 69.064 17.648C68.3813 17.2427 67.848 16.64 67.464 15.84L69.096 15.024C69.3413 15.504 69.6667 15.872 70.072 16.128C70.4773 16.384 70.952 16.512 71.496 16.512C72.2 16.512 72.7707 16.3147 73.208 15.92C73.6453 15.5253 73.864 14.992 73.864 14.32C73.864 14.0213 73.816 13.744 73.72 13.488C73.624 13.232 73.48 13.008 73.288 12.816C73.096 12.624 72.8507 12.4747 72.552 12.368C72.264 12.2507 71.9227 12.192 71.528 12.192C70.6427 12.192 69.9653 12.512 69.496 13.152L68.04 12.448L68.344 6.8H75.16V8.512H69.912L69.784 11.152C70.328 10.768 71.032 10.576 71.896 10.576C72.4827 10.576 73.0107 10.6667 73.48 10.848C73.96 11.0293 74.3653 11.2853 74.696 11.616C75.0373 11.9467 75.2987 12.3467 75.48 12.816C75.6613 13.2853 75.752 13.808 75.752 14.384C75.752 15.0133 75.6453 15.5733 75.432 16.064C75.2187 16.544 74.92 16.9493 74.536 17.28C74.1627 17.6 73.7147 17.84 73.192 18C72.68 18.1707 72.12 18.256 71.512 18.256ZM77.3953 16.96C77.3953 16.6293 77.5073 16.3573 77.7313 16.144C77.9553 15.92 78.2273 15.808 78.5473 15.808C78.8673 15.808 79.1393 15.92 79.3633 16.144C79.5873 16.3573 79.6993 16.6293 79.6993 16.96C79.6993 17.28 79.5873 17.552 79.3633 17.776C79.1393 17.9893 78.8673 18.096 78.5473 18.096C78.2273 18.096 77.9553 17.9893 77.7313 17.776C77.5073 17.552 77.3953 17.28 77.3953 16.96ZM90.7541 12.4C90.7541 13.264 90.6475 14.0587 90.4341 14.784C90.2208 15.4987 89.9115 16.1173 89.5061 16.64C89.1115 17.152 88.6208 17.552 88.0341 17.84C87.4581 18.1173 86.8075 18.256 86.0821 18.256C85.3568 18.256 84.7008 18.1173 84.1141 17.84C83.5381 17.552 83.0475 17.152 82.6421 16.64C82.2475 16.1173 81.9435 15.4987 81.7301 14.784C81.5168 14.0587 81.4101 13.264 81.4101 12.4C81.4101 11.5253 81.5168 10.7307 81.7301 10.016C81.9435 9.29067 82.2475 8.672 82.6421 8.16C83.0475 7.648 83.5381 7.25333 84.1141 6.976C84.7008 6.688 85.3568 6.544 86.0821 6.544C86.8075 6.544 87.4581 6.688 88.0341 6.976C88.6208 7.25333 89.1115 7.65333 89.5061 8.176C89.9115 8.688 90.2208 9.30667 90.4341 10.032C90.6475 10.7467 90.7541 11.536 90.7541 12.4ZM83.3461 12.4C83.3461 12.9867 83.4048 13.5307 83.5221 14.032C83.6395 14.5227 83.8101 14.944 84.0341 15.296C84.2688 15.648 84.5568 15.9253 84.8981 16.128C85.2395 16.32 85.6341 16.416 86.0821 16.416C86.5301 16.416 86.9248 16.32 87.2661 16.128C87.6075 15.9253 87.8901 15.648 88.1141 15.296C88.3488 14.944 88.5248 14.5227 88.6421 14.032C88.7595 13.5307 88.8181 12.9867 88.8181 12.4C88.8181 11.8027 88.7595 11.2587 88.6421 10.768C88.5248 10.2773 88.3488 9.856 88.1141 9.504C87.8901 9.152 87.6075 8.88 87.2661 8.688C86.9248 8.48533 86.5301 8.384 86.0821 8.384C85.6341 8.384 85.2395 8.48533 84.8981 8.688C84.5568 8.88 84.2688 9.152 84.0341 9.504C83.8101 9.856 83.6395 10.2773 83.5221 10.768C83.4048 11.2587 83.3461 11.8027 83.3461 12.4Z" fill="white"/>
<g clip-path="url(#clip0_134_2121)">
<path d="M10.8028 10.745C10.7321 10.535 10.5357 10.3875 10.3078 10.3675L7.18068 10.0975L5.94449 7.335C5.85283 7.1325 5.64592 7 5.41545 7C5.18497 7 4.97544 7.13 4.8864 7.335L3.65021 10.0975L0.523064 10.3675C0.292588 10.3875 0.0987782 10.535 0.0280639 10.745C-0.0426504 10.955 0.0228258 11.185 0.195683 11.33L2.56068 13.3075L1.86402 16.2375C1.81425 16.4525 1.90068 16.675 2.08664 16.805C2.18616 16.875 2.30664 16.91 2.42449 16.91C2.52664 16.91 2.62878 16.885 2.72045 16.8325L5.41806 15.2925L8.11306 16.8325C8.31211 16.945 8.5583 16.935 8.74687 16.805C8.93545 16.675 9.02187 16.4525 8.96949 16.2375L8.27283 13.3075L10.6378 11.33C10.8107 11.185 10.8762 10.955 10.8054 10.745H10.8028Z" fill="#FFB021"/>
</g>
<g clip-path="url(#clip1_134_2121)">
<path d="M23.8028 10.745C23.7321 10.535 23.5357 10.3875 23.3078 10.3675L20.1807 10.0975L18.9445 7.335C18.8528 7.1325 18.6459 7 18.4154 7C18.185 7 17.9754 7.13 17.8864 7.335L16.6502 10.0975L13.5231 10.3675C13.2926 10.3875 13.0988 10.535 13.0281 10.745C12.9573 10.955 13.0228 11.185 13.1957 11.33L15.5607 13.3075L14.864 16.2375C14.8143 16.4525 14.9007 16.675 15.0866 16.805C15.1862 16.875 15.3066 16.91 15.4245 16.91C15.5266 16.91 15.6288 16.885 15.7204 16.8325L18.4181 15.2925L21.1131 16.8325C21.3121 16.945 21.5583 16.935 21.7469 16.805C21.9354 16.675 22.0219 16.4525 21.9695 16.2375L21.2728 13.3075L23.6378 11.33C23.8107 11.185 23.8762 10.955 23.8054 10.745H23.8028Z" fill="#FFB021"/>
</g>
<g clip-path="url(#clip2_134_2121)">
<path d="M35.8208 10.745C35.7565 10.535 35.5779 10.3875 35.3708 10.3675L32.5279 10.0975L31.4041 7.335C31.3208 7.1325 31.1327 7 30.9231 7C30.7136 7 30.5231 7.13 30.4422 7.335L29.3184 10.0975L26.4755 10.3675C26.266 10.3875 26.0898 10.535 26.0255 10.745C25.9612 10.955 26.0208 11.185 26.1779 11.33L28.3279 13.3075L27.6946 16.2375C27.6493 16.4525 27.7279 16.675 27.8969 16.805C27.9874 16.875 28.0969 16.91 28.2041 16.91C28.2969 16.91 28.3898 16.885 28.4731 16.8325L30.9255 15.2925L33.3755 16.8325C33.5565 16.945 33.7803 16.935 33.9517 16.805C34.1231 16.675 34.2017 16.4525 34.1541 16.2375L33.5208 13.3075L35.6708 11.33C35.8279 11.185 35.8874 10.955 35.8231 10.745H35.8208Z" fill="#FFB021"/>
</g>
<g clip-path="url(#clip3_134_2121)">
<path d="M48.8028 10.745C48.7321 10.535 48.5357 10.3875 48.3078 10.3675L45.1807 10.0975L43.9445 7.335C43.8528 7.1325 43.6459 7 43.4154 7C43.185 7 42.9754 7.13 42.8864 7.335L41.6502 10.0975L38.5231 10.3675C38.2926 10.3875 38.0988 10.535 38.0281 10.745C37.9573 10.955 38.0228 11.185 38.1957 11.33L40.5607 13.3075L39.864 16.2375C39.8143 16.4525 39.9007 16.675 40.0866 16.805C40.1862 16.875 40.3066 16.91 40.4245 16.91C40.5266 16.91 40.6288 16.885 40.7204 16.8325L43.4181 15.2925L46.1131 16.8325C46.3121 16.945 46.5583 16.935 46.7469 16.805C46.9354 16.675 47.0219 16.4525 46.9695 16.2375L46.2728 13.3075L48.6378 11.33C48.8107 11.185 48.8762 10.955 48.8054 10.745H48.8028Z" fill="#FFB021"/>
</g>
<g clip-path="url(#clip4_134_2121)">
<path d="M61.8028 10.745C61.7321 10.535 61.5357 10.3875 61.3078 10.3675L58.1807 10.0975L56.9445 7.335C56.8528 7.1325 56.6459 7 56.4154 7C56.185 7 55.9754 7.13 55.8864 7.335L54.6502 10.0975L51.5231 10.3675C51.2926 10.3875 51.0988 10.535 51.0281 10.745C50.9573 10.955 51.0228 11.185 51.1957 11.33L53.5607 13.3075L52.864 16.2375C52.8143 16.4525 52.9007 16.675 53.0866 16.805C53.1862 16.875 53.3066 16.91 53.4245 16.91C53.5266 16.91 53.6288 16.885 53.7204 16.8325L56.4181 15.2925L59.1131 16.8325C59.3121 16.945 59.5583 16.935 59.7469 16.805C59.9354 16.675 60.0219 16.4525 59.9695 16.2375L59.2728 13.3075L61.6378 11.33C61.8107 11.185 61.8762 10.955 61.8054 10.745H61.8028Z" fill="#FFB021"/>
</g>
<path d="M3.01 37V28.474L0.84 29.93L0.308 29.006L2.996 27.2H4.13V37H3.01ZM9.41806 28.096C9.0914 28.096 8.78806 28.152 8.50806 28.264C8.2374 28.376 8.00406 28.53 7.80806 28.726C7.61206 28.922 7.45806 29.1553 7.34606 29.426C7.23406 29.6873 7.17806 29.9767 7.17806 30.294C7.17806 30.6113 7.23406 30.9007 7.34606 31.162C7.45806 31.4233 7.61206 31.652 7.80806 31.848C8.0134 32.0347 8.2514 32.1793 8.52206 32.282C8.80206 32.3847 9.1054 32.436 9.43206 32.436C10.1041 32.436 10.6407 32.24 11.0421 31.848C11.4434 31.4467 11.6441 30.9287 11.6441 30.294C11.6441 29.9767 11.5881 29.6873 11.4761 29.426C11.3734 29.1553 11.2241 28.922 11.0281 28.726C10.8321 28.53 10.5987 28.376 10.3281 28.264C10.0574 28.152 9.75406 28.096 9.41806 28.096ZM9.41806 26.976C10.6127 26.976 11.5227 27.4147 12.1481 28.292C12.7827 29.16 13.1001 30.4153 13.1001 32.058C13.1001 33.7473 12.7641 35.0307 12.0921 35.908C11.4294 36.7853 10.4774 37.224 9.23606 37.224C8.52673 37.224 7.9154 37.0747 7.40206 36.776C6.88873 36.468 6.45473 35.992 6.10006 35.348L7.09406 34.774C7.5794 35.6607 8.30273 36.104 9.26406 36.104C10.1321 36.104 10.7901 35.796 11.2381 35.18C11.6954 34.5547 11.9241 33.6633 11.9241 32.506V32.03C11.6534 32.506 11.2894 32.8653 10.8321 33.108C10.3747 33.3507 9.85206 33.472 9.26406 33.472C8.77873 33.472 8.3354 33.3927 7.93406 33.234C7.53273 33.0753 7.1874 32.856 6.89806 32.576C6.61806 32.2867 6.39873 31.946 6.24006 31.554C6.0814 31.162 6.00206 30.7327 6.00206 30.266C6.00206 29.79 6.0814 29.3513 6.24006 28.95C6.40806 28.5393 6.6414 28.1893 6.94006 27.9C7.24806 27.6107 7.61206 27.3867 8.03206 27.228C8.45206 27.06 8.91406 26.976 9.41806 26.976ZM17.8233 37.224C16.0966 37.224 14.8786 36.4447 14.1693 34.886L15.1913 34.368C15.7046 35.5253 16.5726 36.104 17.7953 36.104C18.514 36.104 19.088 35.9267 19.5173 35.572C19.9466 35.2173 20.1613 34.746 20.1613 34.158C20.1613 33.6633 20.0026 33.2667 19.6853 32.968C19.368 32.6693 18.9293 32.52 18.3693 32.52H16.3533V31.372H18.3273C18.8313 31.372 19.2326 31.2367 19.5313 30.966C19.83 30.6953 19.9793 30.322 19.9793 29.846C19.9793 29.314 19.7833 28.8893 19.3913 28.572C19.0086 28.2547 18.4953 28.096 17.8513 28.096C16.7126 28.096 15.9006 28.6233 15.4153 29.678L14.3933 29.16C14.748 28.4413 15.2193 27.9 15.8073 27.536C16.3953 27.1627 17.0906 26.976 17.8933 26.976C18.3786 26.976 18.822 27.046 19.2233 27.186C19.6246 27.3167 19.9653 27.5033 20.2453 27.746C20.5346 27.9887 20.7586 28.2827 20.9173 28.628C21.076 28.9733 21.1553 29.356 21.1553 29.776C21.1553 30.308 21.0293 30.7653 20.7773 31.148C20.5253 31.5213 20.1753 31.7967 19.7273 31.974C20.25 32.1607 20.6466 32.45 20.9173 32.842C21.1973 33.234 21.3373 33.71 21.3373 34.27C21.3373 34.7087 21.2486 35.11 21.0713 35.474C20.9033 35.838 20.6653 36.1507 20.3573 36.412C20.0493 36.664 19.6806 36.86 19.2513 37C18.822 37.1493 18.346 37.224 17.8233 37.224ZM29.8084 37.196C29.2764 37.196 28.7911 37.1027 28.3524 36.916C27.9137 36.7293 27.5311 36.4727 27.2044 36.146C26.8871 35.81 26.6397 35.418 26.4624 34.97C26.2851 34.5127 26.1964 34.0227 26.1964 33.5C26.1964 32.9773 26.2851 32.492 26.4624 32.044C26.6397 31.5867 26.8871 31.1947 27.2044 30.868C27.5311 30.532 27.9137 30.2707 28.3524 30.084C28.7911 29.8973 29.2764 29.804 29.8084 29.804C30.3404 29.804 30.8257 29.8973 31.2644 30.084C31.7031 30.2707 32.0811 30.532 32.3984 30.868C32.7251 31.1947 32.9771 31.5867 33.1544 32.044C33.3317 32.492 33.4204 32.9773 33.4204 33.5C33.4204 34.0227 33.3317 34.5127 33.1544 34.97C32.9771 35.418 32.7251 35.81 32.3984 36.146C32.0811 36.4727 31.7031 36.7293 31.2644 36.916C30.8257 37.1027 30.3404 37.196 29.8084 37.196ZM29.8084 36.132C30.1724 36.132 30.5037 36.0667 30.8024 35.936C31.1104 35.8053 31.3717 35.6233 31.5864 35.39C31.8011 35.1473 31.9691 34.8673 32.0904 34.55C32.2117 34.2233 32.2724 33.8733 32.2724 33.5C32.2724 33.1173 32.2117 32.7673 32.0904 32.45C31.9691 32.1327 31.8011 31.8573 31.5864 31.624C31.3717 31.3813 31.1104 31.1947 30.8024 31.064C30.5037 30.9333 30.1724 30.868 29.8084 30.868C29.4444 30.868 29.1084 30.9333 28.8004 31.064C28.5017 31.1947 28.2451 31.3813 28.0304 31.624C27.8157 31.8573 27.6477 32.1327 27.5264 32.45C27.4051 32.7673 27.3444 33.1173 27.3444 33.5C27.3444 33.8733 27.4051 34.2233 27.5264 34.55C27.6477 34.8673 27.8157 35.1473 28.0304 35.39C28.2451 35.6233 28.5017 35.8053 28.8004 35.936C29.1084 36.0667 29.4444 36.132 29.8084 36.132ZM35.148 37V30H36.268V35.964H39.908V30H41.028V35.964H42.12V38.82H41.084V37H35.148ZM44.3539 32.814H48.9039C48.8945 32.5247 48.8292 32.2587 48.7079 32.016C48.5959 31.7733 48.4419 31.568 48.2459 31.4C48.0592 31.2227 47.8352 31.0873 47.5739 30.994C47.3125 30.8913 47.0279 30.84 46.7199 30.84C46.1039 30.84 45.5859 31.022 45.1659 31.386C44.7552 31.75 44.4845 32.226 44.3539 32.814ZM46.7759 37.196C46.2439 37.196 45.7539 37.1073 45.3059 36.93C44.8672 36.7433 44.4845 36.4867 44.1579 36.16C43.8405 35.8333 43.5885 35.446 43.4019 34.998C43.2245 34.5407 43.1359 34.0413 43.1359 33.5C43.1359 32.968 43.2245 32.478 43.4019 32.03C43.5792 31.5727 43.8265 31.1807 44.1439 30.854C44.4705 30.5273 44.8532 30.2707 45.2919 30.084C45.7305 29.8973 46.2112 29.804 46.7339 29.804C47.2285 29.804 47.6765 29.888 48.0779 30.056C48.4885 30.2147 48.8385 30.4433 49.1279 30.742C49.4172 31.0407 49.6412 31.4 49.7999 31.82C49.9679 32.2307 50.0519 32.688 50.0519 33.192C50.0519 33.3973 50.0379 33.6073 50.0099 33.822H44.2979C44.3352 34.1673 44.4192 34.48 44.5499 34.76C44.6899 35.04 44.8672 35.2827 45.0819 35.488C45.3059 35.6933 45.5625 35.852 45.8519 35.964C46.1412 36.076 46.4585 36.132 46.8039 36.132C47.2519 36.132 47.6532 36.0433 48.0079 35.866C48.3625 35.6793 48.6519 35.4087 48.8759 35.054L49.7299 35.74C49.3939 36.216 48.9692 36.58 48.4559 36.832C47.9519 37.0747 47.3919 37.196 46.7759 37.196ZM57.653 30V37H56.533V33.808H52.893V37H51.773V30H52.893V32.772H56.533V30H57.653ZM61.8847 33.92H60.9467V37H59.8267V30H60.9467V32.856H61.8847L64.3067 30H65.7487L62.8087 33.36L65.7907 37H64.3767L61.8847 33.92ZM68.2602 30V35.334L71.9562 30H73.1042V37H71.9842V31.666L68.2882 37H67.1402V30H68.2602Z" fill="white"/>
<defs>
<clipPath id="clip0_134_2121">
<rect width="11" height="10" fill="white" transform="translate(0 7)"/>
</clipPath>
<clipPath id="clip1_134_2121">
<rect width="11" height="10" fill="white" transform="translate(13 7)"/>
</clipPath>
<clipPath id="clip2_134_2121">
<rect width="10" height="10" fill="white" transform="translate(26 7)"/>
</clipPath>
<clipPath id="clip3_134_2121">
<rect width="11" height="10" fill="white" transform="translate(38 7)"/>
</clipPath>
<clipPath id="clip4_134_2121">
<rect width="11" height="10" fill="white" transform="translate(51 7)"/>
</clipPath>
</defs>
</svg>
