<svg width="96" height="96" viewBox="0 0 96 96" fill="none" xmlns="http://www.w3.org/2000/svg">
<g clip-path="url(#clip0_130_2002)">
<rect width="96" height="96" rx="20" fill="#F37021"/>
<g clip-path="url(#clip1_130_2002)">
<path d="M30.1684 24H23V71.8021H30.1684V24Z" fill="white"/>
<path d="M52.5101 24H42.8092V30.9027H52.5101C53.3443 30.9027 54.8905 31.0977 56.7279 31.6447C58.8436 32.2745 60.8459 33.2254 62.5186 34.3943C64.4757 35.762 66.0089 37.4386 67.0753 39.3778C68.3782 41.7466 69.0386 44.6141 69.0386 47.9011C69.0386 51.1881 68.3779 54.0558 67.0753 56.4244C66.0089 58.3636 64.4757 60.0401 62.5186 61.4078C60.8459 62.5767 58.8436 63.5276 56.7279 64.1572C54.8905 64.7042 53.3443 64.8992 52.5101 64.8992H41.445V48.3427H34.2764V71.8019H52.5101C58.4876 71.8019 75.9296 67.1477 75.9296 47.9008C75.9296 28.654 58.4876 24 52.5101 24Z" fill="white"/>
</g>
</g>
<defs>
<clipPath id="clip0_130_2002">
<rect width="96" height="96" fill="white"/>
</clipPath>
<clipPath id="clip1_130_2002">
<rect width="53" height="48" fill="white" transform="translate(23 24)"/>
</clipPath>
</defs>
</svg>
