<svg width="28" height="28" viewBox="0 0 28 28" fill="none" xmlns="http://www.w3.org/2000/svg">
<g clip-path="url(#clip0_341_4574)">
<path d="M13.1961 0.142187C12.857 0.344532 12.6875 0.661718 12.6875 1.09375C12.6875 1.53125 12.857 1.84844 13.2016 2.05078C13.4148 2.17656 13.5242 2.19297 14.3336 2.24219C14.8258 2.26953 15.5148 2.34063 15.8594 2.40078C20.0867 3.13359 23.7016 6.20703 25.1016 10.2539C25.5719 11.6211 25.7578 12.7367 25.7578 14.2188C25.7578 15.7063 25.5719 16.8109 25.0906 18.2C24.5656 19.7313 23.8 20.9945 22.5695 22.3781C22.1867 22.8047 22.0281 23.0289 21.9844 23.193C21.7984 23.8875 22.3234 24.6094 23.007 24.6094C23.1328 24.6094 24.1391 24.4836 25.2492 24.3305C27.5078 24.0188 27.6008 23.9914 27.8633 23.5484C27.9727 23.368 28 23.2422 28 22.9688C28 22.5312 27.8305 22.2141 27.4859 22.0117C27.218 21.8531 26.8406 21.8312 26.1898 21.9352C25.9766 21.968 25.7961 21.9844 25.7852 21.9734C25.7797 21.968 25.8781 21.7711 26.0148 21.5469C27.0375 19.8297 27.6664 17.9703 27.918 15.9523C28.0164 15.1758 28.0273 13.4148 27.9398 12.6438C27.7047 10.4836 26.9281 8.27969 25.7742 6.51328C24.6914 4.84531 23.1547 3.30859 21.4867 2.22578C19.3375 0.825781 16.6031 0 14.1258 0C13.475 0 13.4094 0.0109386 13.1961 0.142187Z" fill="white"/>
<path d="M2.70703 3.66953C0.546875 3.97031 0.421094 4.0086 0.153125 4.42422C0.0273438 4.62656 0 4.73047 0 5.02578C0 5.47422 0.169531 5.78594 0.525 5.99375C0.765625 6.13594 0.792969 6.14141 1.32891 6.10313C1.63516 6.08125 1.97422 6.05391 2.07812 6.03203L2.26406 5.99922L2.16562 6.15235C1.925 6.51875 1.40547 7.50313 1.17578 8.02813C0.607031 9.32422 0.196875 10.8883 0.0492187 12.2938C-0.04375 13.2125 0.0109375 15.2742 0.158594 16.1055C0.442969 17.7352 0.891406 19.075 1.61875 20.4531C2.72891 22.5477 4.47891 24.4508 6.51328 25.7742C8.65703 27.1742 11.3914 28 13.8687 28C14.5141 28 14.5797 27.9891 14.7984 27.8633C15.143 27.6609 15.3125 27.3438 15.3125 26.9063C15.3125 26.4688 15.143 26.1516 14.7984 25.9492C14.5852 25.8234 14.4758 25.807 13.6664 25.7578C13.1742 25.7305 12.5453 25.6703 12.2773 25.6266C7.525 24.8391 3.65313 21.2242 2.54297 16.543C2.14375 14.8531 2.13281 12.7859 2.52109 11.1016C2.99141 9.06172 3.91562 7.32266 5.43047 5.62188C5.99922 4.9875 6.10859 4.76328 6.04297 4.34766C5.99375 4.00313 5.74219 3.64766 5.45781 3.50547C5.12422 3.34688 4.93281 3.35781 2.70703 3.66953Z" fill="white"/>
<path d="M12.5184 4.23821C8.84336 4.81243 5.81914 7.3554 4.6543 10.8609C4.24414 12.0804 4.18945 12.4796 4.18945 13.9999C4.18945 15.5202 4.24414 15.9195 4.6543 17.139C5.6332 20.0757 7.92461 22.3671 10.8613 23.346C11.9223 23.7015 12.4637 23.7945 13.6559 23.8273C14.8535 23.8601 15.4277 23.8054 16.4176 23.5648C17.5988 23.2749 18.7254 22.7499 19.7973 21.9952C20.7926 21.2898 22.0613 19.8788 22.5316 18.9546C22.8051 18.4132 22.723 17.8882 22.2965 17.5163C22.0668 17.3195 21.8316 17.2593 21.4105 17.2921C21.0113 17.3249 20.8145 17.489 20.377 18.1616C19.6879 19.2062 18.627 20.1632 17.5004 20.7484C16.3738 21.3335 15.2637 21.607 14.0004 21.607C12.4473 21.607 10.9652 21.1476 9.68008 20.2671C9.10586 19.8788 8.21445 18.9984 7.80977 18.4241C7.14805 17.489 6.6668 16.3406 6.48633 15.2632C6.37148 14.596 6.37148 13.4038 6.48633 12.7366C6.6668 11.6593 7.14805 10.5109 7.80977 9.57571C8.21992 9.00149 9.10586 8.12102 9.68555 7.72727C11.9605 6.16868 14.9137 5.9554 17.3527 7.16946C18.1074 7.5468 18.6434 7.92415 19.2887 8.55305C20.7051 9.92024 21.4598 11.5663 21.6074 13.6116C21.6512 14.2406 21.6785 14.3827 21.7934 14.5851C21.9957 14.9241 22.3129 15.0937 22.7504 15.0937C23.1934 15.0937 23.5051 14.9241 23.7129 14.5687C23.8605 14.3226 23.8605 14.3171 23.8277 13.464C23.6582 8.83743 20.109 4.94368 15.4332 4.23821C14.7715 4.13977 13.1691 4.13977 12.5184 4.23821Z" fill="white"/>
</g>
<defs>
<clipPath id="clip0_341_4574">
<rect width="28" height="28" fill="white"/>
</clipPath>
</defs>
</svg>
