<svg width="8" height="5" viewBox="0 0 8 5" fill="none" xmlns="http://www.w3.org/2000/svg">
<path d="M4.242 4.68542L7.744 1.0375C7.826 0.952083 7.87 0.839583 7.87 0.720833C7.87 0.602083 7.826 0.4875 7.744 0.404167L7.486 0.135417C7.318 -0.0395834 7.046 -0.0395834 6.878 0.135417L3.936 3.2L0.991999 0.13125C0.909999 0.045833 0.801999 -3.08952e-07 0.687999 -3.13935e-07C0.573999 -3.18918e-07 0.463999 0.045833 0.383999 0.13125L0.125999 0.4C0.0439992 0.485416 -2.61358e-08 0.597916 -3.13265e-08 0.716666C-3.65172e-08 0.835416 0.0439992 0.95 0.125999 1.03333L3.63 4.68542C3.712 4.77083 3.82 4.81667 3.936 4.81667C4.052 4.81667 4.16 4.77083 4.242 4.68542Z" fill="white"/>
</svg>
