<svg width="32" height="32" viewBox="0 0 32 32" fill="none" xmlns="http://www.w3.org/2000/svg">
<path d="M8.15523 20.1326H6.93366C5.44018 20.1326 4.69345 20.1326 4.12302 19.8419C3.62125 19.5863 3.2133 19.1783 2.95764 18.6766C2.66699 18.1061 2.66699 17.3594 2.66699 15.8659V9.57331C2.66699 8.07984 2.66699 7.3331 2.95764 6.76267C3.2133 6.2609 3.62125 5.85295 4.12302 5.59729C4.69345 5.30664 5.44019 5.30664 6.93366 5.30664H19.5802C21.0737 5.30664 21.8205 5.30664 22.3909 5.59729C22.8927 5.85295 23.3006 6.2609 23.5563 6.76267C23.8469 7.3331 23.8469 8.07983 23.8469 9.57331V11.6428M25.4493 19.1485H25.4599M12.1628 19.1485H12.1734M12.4206 26.5613H25.0672C26.5607 26.5613 27.3074 26.5613 27.8779 26.2706C28.3796 26.015 28.7876 25.607 29.0432 25.1052C29.3339 24.5348 29.3339 23.7881 29.3339 22.2946V16.002C29.3339 14.5085 29.3339 13.7618 29.0432 13.1914C28.7876 12.6896 28.3796 12.2816 27.8779 12.026C27.3074 11.7353 26.5607 11.7353 25.0672 11.7353H12.4206C10.9272 11.7353 10.1804 11.7353 9.61 12.026C9.10823 12.2816 8.70028 12.6896 8.44462 13.1914C8.15397 13.7618 8.15397 14.5085 8.15397 16.002V22.2946C8.15397 23.7881 8.15397 24.5348 8.44462 25.1052C8.70028 25.607 9.10823 26.015 9.61 26.2706C10.1804 26.5613 10.9272 26.5613 12.4206 26.5613ZM25.9789 19.1485C25.9789 19.441 25.7418 19.6781 25.4493 19.6781C25.1567 19.6781 24.9196 19.441 24.9196 19.1485C24.9196 18.8559 25.1567 18.6188 25.4493 18.6188C25.7418 18.6188 25.9789 18.8559 25.9789 19.1485ZM12.6925 19.1485C12.6925 19.441 12.4553 19.6781 12.1628 19.6781C11.8703 19.6781 11.6331 19.441 11.6331 19.1485C11.6331 18.8559 11.8703 18.6188 12.1628 18.6188C12.4553 18.6188 12.6925 18.8559 12.6925 19.1485ZM21.4911 19.1484C21.4911 20.6322 20.2882 21.8351 18.8043 21.8351C17.3204 21.8351 16.1175 20.6322 16.1175 19.1484C16.1175 17.6645 17.3204 16.4616 18.8043 16.4616C20.2882 16.4616 21.4911 17.6645 21.4911 19.1484Z" stroke="#F37021" stroke-width="2" stroke-linecap="round" stroke-linejoin="round"/>
</svg>
