<svg width="30" height="30" viewBox="0 0 30 30" fill="none" xmlns="http://www.w3.org/2000/svg">
<path d="M24.1242 9.90034V16.3379C24.1242 20.1879 21.9242 21.8378 18.6242 21.8378H7.63671C7.07421 21.8378 6.53671 21.7879 6.03671 21.6754C5.72421 21.6254 5.42422 21.5379 5.14922 21.4379C3.27422 20.7379 2.13672 19.1129 2.13672 16.3379V9.90034C2.13672 6.05034 4.33671 4.40039 7.63671 4.40039H18.6242C21.4242 4.40039 23.4367 5.58788 23.9742 8.30038C24.0617 8.80038 24.1242 9.31284 24.1242 9.90034Z" stroke="#F37021" stroke-width="2" stroke-miterlimit="10" stroke-linecap="round" stroke-linejoin="round"/>
<path d="M27.8766 13.6507V20.0883C27.8766 23.9383 25.6766 25.5882 22.3766 25.5882H11.3891C10.4641 25.5882 9.62657 25.4633 8.90157 25.1883C7.41407 24.6383 6.40156 23.5008 6.03906 21.6758C6.53906 21.7883 7.07656 21.8382 7.63906 21.8382H18.6266C21.9266 21.8382 24.1266 20.1883 24.1266 16.3383V9.90074C24.1266 9.31324 24.0766 8.78828 23.9766 8.30078C26.3516 8.80078 27.8766 10.4757 27.8766 13.6507Z" stroke="#F37021" stroke-width="2" stroke-miterlimit="10" stroke-linecap="round" stroke-linejoin="round"/>
<path d="M13.1223 16.4252C14.9448 16.4252 16.4223 14.9478 16.4223 13.1252C16.4223 11.3027 14.9448 9.8252 13.1223 9.8252C11.2997 9.8252 9.82227 11.3027 9.82227 13.1252C9.82227 14.9478 11.2997 16.4252 13.1223 16.4252Z" stroke="#F37021" stroke-width="2" stroke-miterlimit="10" stroke-linecap="round" stroke-linejoin="round"/>
<path d="M5.97461 10.375V15.875" stroke="#F37021" stroke-width="2" stroke-miterlimit="10" stroke-linecap="round" stroke-linejoin="round"/>
<path d="M20.2773 10.376V15.876" stroke="#F37021" stroke-width="2" stroke-miterlimit="10" stroke-linecap="round" stroke-linejoin="round"/>
</svg>
