<svg width="30" height="30" viewBox="0 0 30 30" fill="none" xmlns="http://www.w3.org/2000/svg">
<path d="M11.4492 13.5875C11.3242 13.575 11.1742 13.575 11.0367 13.5875C8.06172 13.4875 5.69922 11.05 5.69922 8.05C5.69922 4.9875 8.17422 2.5 11.2492 2.5C14.3117 2.5 16.7992 4.9875 16.7992 8.05C16.7867 11.05 14.4242 13.4875 11.4492 13.5875Z" stroke="#F37021" stroke-width="2" stroke-linecap="round" stroke-linejoin="round"/>
<path d="M20.5121 5C22.9371 5 24.8871 6.9625 24.8871 9.375C24.8871 11.7375 23.0121 13.6625 20.6746 13.75C20.5746 13.7375 20.4621 13.7375 20.3496 13.75" stroke="#F37021" stroke-width="2" stroke-linecap="round" stroke-linejoin="round"/>
<path d="M5.20039 18.2C2.17539 20.225 2.17539 23.525 5.20039 25.5375C8.63789 27.8375 14.2754 27.8375 17.7129 25.5375C20.7379 23.5125 20.7379 20.2125 17.7129 18.2C14.2879 15.9125 8.65039 15.9125 5.20039 18.2Z" stroke="#F37021" stroke-width="2" stroke-linecap="round" stroke-linejoin="round"/>
<path d="M22.9258 25C23.8258 24.8125 24.6758 24.45 25.3758 23.9125C27.3258 22.45 27.3258 20.0375 25.3758 18.575C24.6883 18.05 23.8508 17.7 22.9633 17.5" stroke="#F37021" stroke-width="2" stroke-linecap="round" stroke-linejoin="round"/>
</svg>
