<svg width="30" height="30" viewBox="0 0 30 30" fill="none" xmlns="http://www.w3.org/2000/svg">
<path d="M20.875 23.7252H9.125C8.6 23.7252 8.0125 23.3127 7.8375 22.8127L2.6625 8.3377C1.925 6.2627 2.7875 5.6252 4.5625 6.9002L9.4375 10.3877C10.25 10.9502 11.175 10.6627 11.525 9.7502L13.725 3.8877C14.425 2.0127 15.5875 2.0127 16.2875 3.8877L18.4875 9.7502C18.8375 10.6627 19.7625 10.9502 20.5625 10.3877L25.1375 7.1252C27.0875 5.7252 28.025 6.4377 27.225 8.7002L22.175 22.8377C21.9875 23.3127 21.4 23.7252 20.875 23.7252Z" stroke="#F37021" stroke-width="2" stroke-linecap="round" stroke-linejoin="round"/>
<path d="M8.125 27.5H21.875" stroke="#F37021" stroke-width="2" stroke-linecap="round" stroke-linejoin="round"/>
<path d="M11.875 17.5H18.125" stroke="#F37021" stroke-width="2" stroke-linecap="round" stroke-linejoin="round"/>
</svg>
