<svg width="30" height="30" viewBox="0 0 30 30" fill="none" xmlns="http://www.w3.org/2000/svg">
<path d="M13.4395 21.0752V23.6127C13.4395 25.7627 11.4395 27.5002 8.97697 27.5002C6.51447 27.5002 4.50195 25.7627 4.50195 23.6127V21.0752C4.50195 23.2252 6.50197 24.7502 8.97697 24.7502C11.4395 24.7502 13.4395 23.2127 13.4395 21.0752Z" stroke="white" stroke-width="2" stroke-linecap="round" stroke-linejoin="round"/>
<path d="M13.4382 17.6377C13.4382 18.2627 13.2632 18.8376 12.9632 19.3376C12.2257 20.5501 10.7132 21.3127 8.96323 21.3127C7.21323 21.3127 5.70071 20.5376 4.96321 19.3376C4.66321 18.8376 4.48828 18.2627 4.48828 17.6377C4.48828 16.5627 4.98825 15.6002 5.78825 14.9002C6.60075 14.1877 7.71321 13.7627 8.95071 13.7627C10.1882 13.7627 11.3008 14.2002 12.1133 14.9002C12.9383 15.5877 13.4382 16.5627 13.4382 17.6377Z" stroke="white" stroke-width="2" stroke-linecap="round" stroke-linejoin="round"/>
<path d="M13.4395 17.6375V21.075C13.4395 23.225 11.4395 24.75 8.97697 24.75C6.51447 24.75 4.50195 23.2125 4.50195 21.075V17.6375C4.50195 15.4875 6.50197 13.75 8.97697 13.75C10.2145 13.75 11.327 14.1875 12.1395 14.8875C12.9395 15.5875 13.4395 16.5625 13.4395 17.6375Z" stroke="white" stroke-width="2" stroke-linecap="round" stroke-linejoin="round"/>
<path d="M27.4993 13.7124V16.2875C27.4993 16.975 26.9493 17.5375 26.2493 17.5625H23.7993C22.4493 17.5625 21.2118 16.575 21.0993 15.225C21.0243 14.4375 21.3243 13.7 21.8493 13.1875C22.3118 12.7125 22.9493 12.4375 23.6493 12.4375H26.2493C26.9493 12.4625 27.4993 13.0249 27.4993 13.7124Z" stroke="white" stroke-width="2" stroke-linecap="round" stroke-linejoin="round"/>
<path d="M2.5 13.125V10.625C2.5 7.225 4.55 4.85 7.7375 4.45C8.0625 4.4 8.4 4.375 8.75 4.375H20C20.325 4.375 20.6375 4.38748 20.9375 4.43748C24.1625 4.81248 26.25 7.2 26.25 10.625V12.4375H23.65C22.95 12.4375 22.3125 12.7125 21.85 13.1875C21.325 13.7 21.025 14.4375 21.1 15.225C21.2125 16.575 22.45 17.5625 23.8 17.5625H26.25V19.375C26.25 23.125 23.75 25.625 20 25.625H16.875" stroke="white" stroke-width="2" stroke-linecap="round" stroke-linejoin="round"/>
</svg>
