<svg width="32" height="32" viewBox="0 0 32 32" fill="none" xmlns="http://www.w3.org/2000/svg">
<path d="M8.15425 20.1326H6.93268C5.43921 20.1326 4.69247 20.1326 4.12204 19.8419C3.62028 19.5863 3.21233 19.1783 2.95666 18.6766C2.66602 18.1061 2.66602 17.3594 2.66602 15.8659V9.57331C2.66602 8.07984 2.66602 7.3331 2.95666 6.76267C3.21233 6.2609 3.62028 5.85295 4.12204 5.59729C4.69247 5.30664 5.43921 5.30664 6.93268 5.30664H19.5793C21.0727 5.30664 21.8195 5.30664 22.3899 5.59729C22.8917 5.85295 23.2996 6.2609 23.5553 6.76267C23.8459 7.3331 23.8459 8.07983 23.8459 9.57331V11.6428M25.4483 19.1485H25.4589M12.1618 19.1485H12.1724M12.4197 26.5613H25.0662C26.5597 26.5613 27.3065 26.5613 27.8769 26.2706C28.3787 26.015 28.7866 25.607 29.0423 25.1052C29.3329 24.5348 29.3329 23.7881 29.3329 22.2946V16.002C29.3329 14.5085 29.3329 13.7618 29.0423 13.1914C28.7866 12.6896 28.3787 12.2816 27.8769 12.026C27.3065 11.7353 26.5597 11.7353 25.0662 11.7353H12.4197C10.9262 11.7353 10.1795 11.7353 9.60902 12.026C9.10725 12.2816 8.69931 12.6896 8.44364 13.1914C8.153 13.7618 8.15299 14.5085 8.15299 16.002V22.2946C8.15299 23.7881 8.153 24.5348 8.44364 25.1052C8.69931 25.607 9.10725 26.015 9.60902 26.2706C10.1795 26.5613 10.9262 26.5613 12.4197 26.5613ZM25.978 19.1485C25.978 19.441 25.7408 19.6781 25.4483 19.6781C25.1558 19.6781 24.9186 19.441 24.9186 19.1485C24.9186 18.8559 25.1558 18.6188 25.4483 18.6188C25.7408 18.6188 25.978 18.8559 25.978 19.1485ZM12.6915 19.1485C12.6915 19.441 12.4544 19.6781 12.1618 19.6781C11.8693 19.6781 11.6322 19.441 11.6322 19.1485C11.6322 18.8559 11.8693 18.6188 12.1618 18.6188C12.4544 18.6188 12.6915 18.8559 12.6915 19.1485ZM21.4901 19.1484C21.4901 20.6322 20.2872 21.8351 18.8033 21.8351C17.3195 21.8351 16.1165 20.6322 16.1165 19.1484C16.1165 17.6645 17.3195 16.4616 18.8033 16.4616C20.2872 16.4616 21.4901 17.6645 21.4901 19.1484Z" stroke="#F37021" stroke-width="2" stroke-linecap="round" stroke-linejoin="round"/>
</svg>
