<svg width="32" height="32" viewBox="0 0 32 32" fill="none" xmlns="http://www.w3.org/2000/svg">
<path d="M23.8198 12.7163L24.4376 12.4354C26.4726 11.5099 27.4901 11.0472 27.8058 10.406C28.0801 9.84892 28.0801 9.19599 27.8058 8.63888C27.4901 7.99774 26.4726 7.53501 24.4376 6.60954L18.6484 3.97672C17.6735 3.53336 17.1861 3.31167 16.6785 3.22417C16.2288 3.14663 15.7691 3.14663 15.3193 3.22417C14.8118 3.31167 14.3244 3.53336 13.3495 3.97673L7.56027 6.60954C5.5253 7.53501 4.50782 7.99774 4.19209 8.63888C3.91774 9.19599 3.91774 9.84892 4.19209 10.406C4.50782 11.0472 5.5253 11.5099 7.56028 12.4354L8.19161 12.7225M23.8198 12.7163L18.6484 15.0682C17.6735 15.5116 17.1861 15.7332 16.6785 15.8207C16.2288 15.8983 15.7691 15.8983 15.3193 15.8207C14.8118 15.7332 14.3244 15.5116 13.3495 15.0682L8.19161 12.7225M23.8198 12.7163L23.9534 12.7868L24.4376 13.007C26.4726 13.9324 27.4901 14.3952 27.8058 15.0363C28.0801 15.5934 28.0801 16.2463 27.8058 16.8034C27.4901 17.4446 26.4726 17.9073 24.4376 18.8328L23.643 19.1941M8.19161 12.7225L7.76931 12.9119L7.56027 13.007C5.5253 13.9324 4.50782 14.3952 4.19209 15.0363C3.91774 15.5934 3.91774 16.2463 4.19209 16.8034C4.50782 17.4446 5.52531 17.9073 7.56028 18.8328L8.36944 19.2008M8.36944 19.2008L13.3495 21.4656C14.3244 21.909 14.8118 22.1307 15.3193 22.2181C15.7691 22.2957 16.2288 22.2957 16.6785 22.2181C17.1861 22.1307 17.6735 21.909 18.6484 21.4656L23.643 19.1941M8.36944 19.2008L7.76931 19.4682L7.56027 19.5633C5.5253 20.4887 4.50782 20.9515 4.19209 21.5926C3.91774 22.1497 3.91774 22.8026 4.19209 23.3598C4.50782 24.0009 5.52531 24.4636 7.56028 25.3891L13.3495 28.0219C14.3244 28.4653 14.8118 28.687 15.3193 28.7745C15.7691 28.852 16.2288 28.852 16.6785 28.7745C17.1861 28.687 17.6735 28.4653 18.6484 28.0219L24.4376 25.3891C26.4726 24.4636 27.4901 24.0009 27.8058 23.3598C28.0801 22.8026 28.0801 22.1497 27.8058 21.5926C27.4901 20.9515 26.4726 20.4887 24.4376 19.5633L23.9534 19.3431L23.643 19.1941" stroke="#F37021" stroke-width="2" stroke-linecap="round" stroke-linejoin="round"/>
</svg>
