<svg width="18" height="20" viewBox="0 0 18 20" fill="none" xmlns="http://www.w3.org/2000/svg">
<g clip-path="url(#clip0_130_809)">
<path d="M0 16.631C0.198818 15.8529 0.761318 15.3626 1.4805 15.0439C2.08227 14.7775 2.71514 14.5685 3.34759 14.3736C3.7935 14.2361 4.22509 14.4994 4.34414 14.9205C4.46032 15.3314 4.22182 15.7209 3.78082 15.8681C3.28091 16.0353 2.78141 16.2052 2.29091 16.3955C2.11173 16.465 1.95014 16.5853 1.79509 16.7001C1.60732 16.84 1.59995 16.8986 1.79182 17.0228C2.06018 17.1966 2.33959 17.3654 2.63659 17.488C3.63191 17.9001 4.69145 18.0853 5.75877 18.2244C7.03064 18.39 8.31027 18.4521 9.59318 18.4173C11.3686 18.3693 13.1314 18.2173 14.8295 17.6794C15.2395 17.5498 15.6432 17.3748 16.0106 17.1591C16.47 16.8896 16.4528 16.8494 16.0073 16.5584C15.4902 16.2205 14.8946 16.0455 14.2957 15.8896C13.9496 15.7994 13.7193 15.6037 13.6407 15.265C13.5209 14.7462 14.0318 14.2333 14.5743 14.3537C15.3933 14.5353 16.1804 14.8048 16.8938 15.2419C17.4391 15.5759 17.8433 16.0142 18 16.6306V17.0986C17.7959 17.89 17.2076 18.3576 16.4905 18.7095C16.2311 18.8369 15.9627 18.9513 15.6895 19.0478C14.2151 19.5689 12.6765 19.7841 11.1191 19.906C10.7673 19.9334 10.4155 19.958 10.0636 19.9841H7.93636C7.88359 19.9744 7.83123 19.9607 7.77805 19.956C6.98523 19.8873 6.18914 19.8419 5.4 19.7466C4.20259 19.6021 3.02564 19.3595 1.91455 18.8935C1.04236 18.5275 0.257727 18.0654 0 17.0986V16.6306L0 16.631Z" fill="#F37021"/>
<path d="M8.99257 0C12.5594 0.0175781 15.6374 2.48438 16.2494 5.81367C16.5542 7.47109 16.1926 9.01133 15.4292 10.4926C14.6487 12.0066 13.5748 13.3203 12.3577 14.5309C11.83 15.0559 11.2765 15.559 10.7116 16.0477C9.67698 16.9422 8.33516 16.9395 7.29361 16.0543C5.69366 14.6949 4.24425 13.2098 3.12334 11.4563C2.47779 10.4465 1.96643 9.38047 1.75534 8.20508C1.39207 6.17891 1.88707 4.3457 3.20148 2.72773C4.37843 1.2793 5.94157 0.417578 7.83484 0.110547C8.21611 0.0488281 8.60638 0.0355469 8.99257 0ZM8.75734 1.58008C7.45848 1.60352 6.11052 2.09492 5.01538 3.13047C3.64575 4.42578 3.0677 5.99805 3.34916 7.83008C3.50993 8.87617 3.98202 9.81133 4.55966 10.6996C5.59548 12.2934 6.92707 13.6445 8.38179 14.8922C8.79088 15.243 9.21593 15.252 9.61766 14.8883C10.2104 14.3516 10.8081 13.818 11.3673 13.2504C12.3921 12.2098 13.3015 11.0844 13.9642 9.79453C14.4969 8.7582 14.8213 7.68047 14.6969 6.50781C14.4007 3.71055 11.9405 1.5793 8.75693 1.58008H8.75734Z" fill="#F37021"/>
<path d="M12.2726 7.05395C12.2665 8.77309 10.7851 10.1672 8.97369 10.1582C7.18065 10.1493 5.72183 8.74066 5.72756 7.02348C5.73328 5.30395 7.21337 3.91137 9.02647 3.91996C10.8203 3.92856 12.2787 5.33676 12.2726 7.05395ZM7.36433 7.03168C7.36106 7.89223 8.09578 8.59731 8.99742 8.59809C9.89087 8.59926 10.6285 7.90473 10.6358 7.0559C10.6432 6.19379 9.91337 5.4852 9.01297 5.48012C8.10928 5.47504 7.36801 6.17309 7.36474 7.03168H7.36433Z" fill="#F37021"/>
</g>
<defs>
<clipPath id="clip0_130_809">
<rect width="18" height="20" fill="white"/>
</clipPath>
</defs>
</svg>
