<svg width="32" height="32" viewBox="0 0 32 32" fill="none" xmlns="http://www.w3.org/2000/svg">
<path d="M16 10.6665V29.3332M5.33333 19.9998H26.6667M10.4 29.3332H21.6C23.8402 29.3332 24.9603 29.3332 25.816 28.8972C26.5686 28.5137 27.1805 27.9018 27.564 27.1491C28 26.2935 28 25.1734 28 22.9332V17.0665C28 14.8263 28 13.7062 27.564 12.8505C27.1805 12.0979 26.5686 11.486 25.816 11.1025C24.9603 10.6665 23.8402 10.6665 21.6 10.6665H10.4C8.15979 10.6665 7.03969 10.6665 6.18404 11.1025C5.43139 11.486 4.81947 12.0979 4.43597 12.8505C4 13.7062 4 14.8263 4 17.0665V22.9332C4 25.1734 4 26.2935 4.43597 27.1491C4.81947 27.9018 5.43139 28.5137 6.18404 28.8972C7.03969 29.3332 8.15979 29.3332 10.4 29.3332ZM14.6667 10.6665C16.6667 9.11095 18.0792 5.05842 20.6667 3.33328C24.6667 0.666371 28.6667 4.6665 25.3333 8.66643C23.3333 11.0664 17.5556 10.6665 14.6667 10.6665ZM17.2417 10.6665C15.2417 9.11095 13.8292 5.05842 11.2417 3.33328C7.2417 0.666371 3.2417 4.6665 6.57503 8.66643C8.57503 11.0664 14.3528 10.6665 17.2417 10.6665Z" stroke="#F37021" stroke-width="2" stroke-linecap="round"/>
</svg>
