<svg width="28" height="24" viewBox="0 0 28 24" fill="none" xmlns="http://www.w3.org/2000/svg">
<g opacity="0.2" clip-path="url(#clip0_340_4495)">
<path d="M3.72499 0H0V23.9011H3.72499V0Z" fill="white"/>
<path d="M15.3344 0H10.2934V3.45137H15.3344C15.7679 3.45137 16.5713 3.54885 17.5261 3.82235C18.6255 4.13727 19.666 4.61271 20.5352 5.19716C21.5522 5.88102 22.3489 6.71928 22.9031 7.68888C23.5801 8.87328 23.9233 10.307 23.9233 11.9505C23.9233 13.594 23.58 15.0279 22.9031 16.2122C22.3489 17.1818 21.5522 18.0201 20.5352 18.7039C19.666 19.2884 18.6255 19.7638 17.5261 20.0786C16.5713 20.3521 15.7679 20.4496 15.3344 20.4496H9.58448V12.1713H5.85938V23.901H15.3344C18.4405 23.901 27.5041 21.5738 27.5041 11.9504C27.5041 2.327 18.4405 0 15.3344 0Z" fill="white"/>
</g>
<defs>
<clipPath id="clip0_340_4495">
<rect width="28" height="24" fill="white"/>
</clipPath>
</defs>
</svg>
