<svg width="18" height="18" viewBox="0 0 18 18" fill="none" xmlns="http://www.w3.org/2000/svg">
<path d="M3.825 0C7.25559 0 10.6915 0 14.1274 0C14.1644 0.0105882 14.2015 0.0264706 14.2438 0.0317647C15.9115 0.227647 17.3197 1.42412 17.7803 3.04412C17.8544 3.29824 17.8968 3.56824 17.9497 3.82765V14.1512C17.9391 14.1829 17.9232 14.2147 17.9179 14.2465C17.6532 16.0147 16.6738 17.1953 14.9956 17.7829C14.7203 17.8782 14.4185 17.9153 14.1326 17.9788H3.825C3.78794 17.9682 3.75088 17.9524 3.70853 17.9471C1.63324 17.7088 0.0132353 15.93 0.00794118 13.8335C-0.00264706 10.6041 -0.00264706 7.37471 0.00794118 4.14529C0.0132353 2.39824 1.16206 0.81 2.80853 0.248824C3.13676 0.137647 3.48618 0.0794118 3.825 0ZM8.96559 16.5759C10.5485 16.5759 12.1315 16.5759 13.7144 16.5759C15.3026 16.5759 16.5415 15.3371 16.5468 13.7488C16.5468 10.5776 16.5468 7.40647 16.5468 4.23C16.5468 2.64176 15.3026 1.40294 13.7197 1.40294C10.5591 1.40294 7.39853 1.40294 4.23794 1.40294C2.64441 1.40294 1.41088 2.64706 1.40559 4.24588C1.40559 7.40647 1.40559 10.5671 1.40559 13.7276C1.40559 13.9182 1.42147 14.1141 1.45853 14.3047C1.73382 15.6494 2.86147 16.5706 4.23265 16.5759C5.81029 16.5759 7.38794 16.5759 8.96559 16.5759Z" fill="white"/>
<path d="M9.67508 12.7103C10.0298 12.7103 10.358 12.7103 10.6916 12.7103C11.1151 12.7103 11.4274 13.012 11.4274 13.4144C11.4274 13.8167 11.1151 14.1132 10.6863 14.1132C9.54802 14.1132 8.40979 14.1132 7.27155 14.1132C6.74214 14.1132 6.41391 13.6844 6.55685 13.1973C6.64685 12.9061 6.90097 12.7208 7.2345 12.7103C7.40391 12.7103 7.57332 12.7103 7.74273 12.7103C7.91214 12.7103 8.08155 12.7103 8.27744 12.7103C8.27744 12.6414 8.27744 12.5779 8.27744 12.5197C8.27744 11.2914 8.27744 10.0632 8.27744 8.83496C8.27744 8.32143 7.99685 8.04614 7.48861 8.04084C7.36685 8.04084 7.23979 8.04614 7.12332 8.03025C6.76332 7.97202 6.53038 7.69143 6.53038 7.33672C6.53038 6.98731 6.75802 6.69084 7.11273 6.65378C7.9492 6.56378 8.80685 6.73849 9.38391 7.67025C9.59038 8.00378 9.68038 8.37967 9.68038 8.77143C9.68038 10.0367 9.68038 11.2967 9.68038 12.562V12.7103H9.67508Z" fill="white"/>
<path d="M8.97106 5.61759C8.49459 5.61759 8.09753 5.22053 8.09753 4.74935C8.09753 4.25171 8.47342 3.86523 8.96577 3.86523C9.46342 3.86523 9.84989 4.2517 9.84989 4.75465C9.84989 5.22582 9.44753 5.61759 8.97106 5.61759Z" fill="white"/>
</svg>
