<svg width="28" height="28" viewBox="0 0 28 28" fill="none" xmlns="http://www.w3.org/2000/svg">
<path d="M9.33366 3.3036C10.7627 2.67921 12.3411 2.33284 14.0003 2.33284C15.6587 2.33284 17.2362 2.67884 18.6647 3.3026M24.6962 18.6662C25.3206 17.2371 25.667 15.6587 25.667 13.9995C25.667 13.962 25.6668 13.9245 25.6665 13.887M16.557 5.48149L18.0182 4.02026L18.6647 3.3026M22.404 11.3265L23.8652 9.86527L24.6074 9.13468M21.6722 6.21212L22.1078 5.77657L22.2007 5.70105M13.6364 8.4038L13.4528 8.58738M19.4788 14.2488L19.27 14.4577M13.8646 2.33008L11.4437 4.7509M18.7496 9.13468L17.2884 10.5959M23.1354 16.4406L25.3272 14.2489L25.6665 13.887M9.25224 12.7876L7.79102 14.2489M15.097 18.6326L13.6357 20.0939M7.06185 9.13444L7.79102 8.40527L7.99341 8.28425M12.9043 14.9795L13.6349 14.2489L13.8141 14.1049M18.749 20.8245L19.4788 20.0947L19.6608 19.9516M4.86813 17.1712L3.4069 18.6324M10.7129 23.0162L9.25163 24.4774M4.13668 12.057L2.67546 13.5183M9.98369 17.9021L8.52246 19.3633M15.8284 23.7468L14.3672 25.208M2.04199 2.33284L5.60277 5.89361M25.3753 25.6662L22.112 22.4029M18.6647 3.3026C19.9898 3.88123 21.1867 4.69888 22.2007 5.70105M22.2007 5.70105C23.1963 6.68493 24.0157 7.84666 24.6074 9.13468M24.6074 9.13468C25.273 10.5835 25.6505 12.192 25.6665 13.887M13.8141 14.1049L7.99341 8.28425M13.8141 14.1049L19.6608 19.9516M7.99341 8.28425L5.60277 5.89361M5.60277 5.89361L5.52963 5.9771C3.5487 8.06801 2.33366 10.8919 2.33366 13.9995C2.33366 20.4428 7.557 25.6662 14.0003 25.6662C17.0571 25.6662 19.8394 24.4906 21.9195 22.5668L22.112 22.4029M19.6608 19.9516L22.112 22.4029" stroke="white" stroke-width="2" stroke-linecap="round" stroke-linejoin="round"/>
</svg>
