<svg width="14" height="22" viewBox="0 0 14 22" fill="none" xmlns="http://www.w3.org/2000/svg">
<g clip-path="url(#clip0_130_813)">
<path d="M9.88578 21.9893H3.87117C3.83348 21.9785 3.7904 21.9571 3.75271 21.9517C1.63117 21.6727 0.0103996 19.8805 0.00501502 17.7556C-0.000369591 13.2483 -0.000369591 8.74097 0.00501502 4.23366C0.0103996 2.44146 1.18425 0.826341 2.8804 0.252195C3.20348 0.144878 3.54271 0.0858537 3.87117 0C5.87425 0 7.88271 0 9.88578 0C9.92348 0.0107317 9.96655 0.0321951 10.0042 0.037561C11.7866 0.273659 13.2135 1.5561 13.6335 3.30537C13.6766 3.49317 13.7142 3.68098 13.7519 3.86341V18.1205C13.7412 18.158 13.7196 18.201 13.7142 18.2385C13.4558 19.8966 12.5458 21.0556 10.995 21.6888C10.645 21.8337 10.2573 21.8873 9.88578 21.9839V21.9893ZM12.0342 11.0161C12.0342 8.80537 12.0342 6.59463 12.0342 4.3839C12.0342 2.83854 10.9142 1.71707 9.36348 1.71707C7.7104 1.71707 6.05732 1.71707 4.40425 1.71707C2.84271 1.71707 1.72271 2.83317 1.72271 4.38927C1.72271 8.78927 1.72271 13.1893 1.72271 17.5946C1.72271 19.1561 2.84271 20.2722 4.39886 20.2722C6.04655 20.2722 7.69425 20.2722 9.33655 20.2722C10.9142 20.2722 12.0289 19.1615 12.0289 17.5893C12.0289 15.4 12.0289 13.2107 12.0289 11.0215L12.0342 11.0161Z" fill="#F37021"/>
<path d="M6.88672 3.43359C7.16672 3.43359 7.44672 3.43359 7.72134 3.43359C8.22211 3.43896 8.59903 3.81457 8.59365 4.30286C8.59365 4.77506 8.21672 5.1453 7.72672 5.15067C7.16134 5.15603 6.59595 5.15603 6.03057 5.15067C5.5298 5.15067 5.15288 4.76433 5.15826 4.2814C5.15826 3.8092 5.53518 3.43896 6.02518 3.43359C6.31057 3.43359 6.59595 3.43359 6.88134 3.43359H6.88672Z" fill="#F37021"/>
<path d="M6.88128 18.5554C6.60128 18.5554 6.32128 18.5554 6.04666 18.5554C5.54051 18.55 5.16359 18.1852 5.1582 17.7022C5.1582 17.2193 5.53513 16.8437 6.0359 16.8383C6.60128 16.8383 7.16666 16.833 7.73205 16.8383C8.22205 16.8383 8.59359 17.2139 8.59897 17.6915C8.59897 18.1637 8.22743 18.5447 7.74282 18.5554C7.45743 18.5608 7.17205 18.5554 6.88666 18.5554H6.88128Z" fill="#F37021"/>
</g>
<defs>
<clipPath id="clip0_130_813">
<rect width="14" height="22" fill="white"/>
</clipPath>
</defs>
</svg>
