<svg width="28" height="28" viewBox="0 0 28 28" fill="none" xmlns="http://www.w3.org/2000/svg">
<path d="M16.8347 10.292L17.7387 11.196C18.6154 12.0727 20.0368 12.0727 20.9135 11.196L23.3291 8.78039C23.8891 8.22039 24.8323 8.4089 24.9887 9.18527C25.4908 11.678 24.7754 14.3671 22.8426 16.2999C20.4719 18.6706 16.9632 19.2097 14.075 17.9172L7.60488 24.3873C6.509 25.4831 4.73224 25.4831 3.63636 24.3873C2.54048 23.2914 2.54048 21.5146 3.63636 20.4187L10.1091 13.9459C8.82222 11.0596 9.36276 7.55608 11.7308 5.18806C13.6636 3.25529 16.3527 2.53994 18.8454 3.04201C19.6218 3.19839 19.8103 4.14159 19.2503 4.70159L16.8347 7.11718C15.958 7.99388 15.958 9.4153 16.8347 10.292Z" stroke="white" stroke-width="2" stroke-linecap="round" stroke-linejoin="round"/>
</svg>
