<svg width="7" height="12" viewBox="0 0 7 12" fill="none" xmlns="http://www.w3.org/2000/svg">
<g clip-path="url(#clip0_325_116)">
<path d="M0.184557 6.36318L5.29164 11.6162C5.41122 11.7392 5.56872 11.8052 5.73497 11.8052C5.90122 11.8052 6.06164 11.7392 6.17831 11.6162L6.55456 11.2292C6.79956 10.9772 6.79956 10.5692 6.55456 10.3172L2.26414 5.90418L6.56039 1.48818C6.67997 1.36518 6.74414 1.20318 6.74414 1.03218C6.74414 0.861176 6.67997 0.696177 6.56039 0.576177L6.18414 0.189177C6.06456 0.0661764 5.90706 0.000177308 5.74081 0.000177293C5.57456 0.000177278 5.41414 0.0661763 5.29747 0.189176L0.184558 5.44518C0.0649739 5.56818 0.000807325 5.73018 0.00080731 5.90418C0.000807295 6.07818 0.0649738 6.24018 0.184557 6.36318Z" fill="white"/>
</g>
<defs>
<clipPath id="clip0_325_116">
<rect width="7" height="12" fill="white"/>
</clipPath>
</defs>
</svg>
