<svg width="24" height="24" viewBox="0 0 24 24" fill="none" xmlns="http://www.w3.org/2000/svg">
<g clip-path="url(#clip0_341_4556)">
<path d="M3.7256 0.0890632C3.5006 0.192188 3.40216 0.295313 3.30372 0.529688C3.2006 0.782813 3.19591 5.5125 3.30372 5.92969C3.43028 6.42188 3.64591 6.7875 4.05372 7.19531C4.63028 7.77188 5.22091 8.01562 6.04591 8.01562C6.54278 8.01562 6.9131 7.93125 7.35372 7.72031C7.7756 7.51875 8.35685 6.9375 8.5631 6.51563C8.85841 5.91094 8.85841 5.90156 8.85841 3.17813C8.85841 0.548438 8.85372 0.515625 8.63341 0.2625C8.41778 0.023438 7.85997 -0.0749998 7.5131 0.070313C7.27872 0.16875 7.1756 0.267188 7.07247 0.492188C6.99278 0.665626 6.98341 0.84375 6.98341 2.8875C6.98341 4.16719 6.96466 5.20313 6.93653 5.34375C6.84747 5.80313 6.50528 6.09375 6.04591 6.09375C5.58653 6.09375 5.24435 5.80313 5.15528 5.34375C5.12716 5.20313 5.10841 4.16719 5.10841 2.8875C5.10841 0.84375 5.09903 0.665626 5.01935 0.492188C4.97247 0.389063 4.89278 0.267188 4.84591 0.225C4.5881 -0.00468731 4.0631 -0.0656242 3.7256 0.0890632Z" fill="white"/>
<path d="M10.8891 0.123366C10.6031 0.292116 10.4531 0.568678 10.4531 0.920241C10.4531 1.24837 10.8094 3.47493 11.0438 4.63274C11.2313 5.55618 11.4703 6.39993 11.6719 6.83587C11.8266 7.16399 12.1969 7.58587 12.4875 7.75462C13.1438 8.13899 14.1141 8.10149 14.7422 7.66555C15.3609 7.24368 15.6797 6.49368 16.05 4.59993C16.2703 3.49368 16.5938 1.29524 16.5938 0.934303C16.5938 0.362428 16.2281 0.00149059 15.6562 0.00149059C15.4219 0.00149059 15.3141 0.0249281 15.1594 0.118678C14.7984 0.329616 14.7469 0.479616 14.5547 1.82962C14.2688 3.82649 13.9594 5.3593 13.7344 5.88899C13.6172 6.15618 13.4859 6.17024 13.3781 5.91712C13.1391 5.34993 12.8578 4.0468 12.5391 2.01712C12.2906 0.465553 12.2484 0.329616 11.8875 0.118678C11.6016 -0.0453844 11.1703 -0.0453844 10.8891 0.123366Z" fill="white"/>
<path d="M18.3797 4.17718C18.0703 4.33187 17.9062 4.6225 17.9062 5.00218C17.9062 5.43812 18.0469 5.69125 18.3984 5.87875C18.5766 5.9725 18.6469 5.97718 19.8984 5.98187C21.075 5.98187 21.2297 5.99125 21.375 6.06625C21.6703 6.22093 21.7969 6.33343 21.9234 6.55375L22.0547 6.77406L22.0781 8.13343C22.1016 9.43656 22.1062 9.50218 22.2094 9.69437C22.275 9.81625 22.4016 9.95218 22.5375 10.0366C22.7391 10.1678 22.7859 10.1772 23.0906 10.1631C23.5078 10.1444 23.7516 9.99906 23.9016 9.685C24 9.48343 24.0047 9.43656 23.9906 7.96C23.9766 6.45062 23.9766 6.44593 23.85 6.10375C23.5359 5.23656 22.8422 4.54281 21.975 4.22875C21.6328 4.10218 21.6234 4.10218 20.1094 4.08812C18.6187 4.07406 18.5812 4.07875 18.3797 4.17718Z" fill="white"/>
<path d="M0.435938 7.24757C0.145313 7.42101 0 7.69289 0 8.06789C0 8.3257 0.0234375 8.40539 0.135938 8.58351C0.210938 8.69601 1.75781 10.2757 3.57188 12.0991C6.5625 15.0991 6.90469 15.4273 7.275 15.6523C8.2125 16.2194 8.99063 16.4538 10.0641 16.4866C11.0906 16.5241 11.8453 16.3741 12.7406 15.9616C13.4813 15.6148 13.8 15.3523 15.6703 13.5288C16.6547 12.5726 18.0656 11.1898 18.8156 10.4632C19.5656 9.73195 20.2266 9.05695 20.2828 8.9632C20.4375 8.71007 20.4328 8.26007 20.2734 7.9882C20.1 7.69289 19.8281 7.54757 19.4484 7.54757C19.2188 7.54757 19.1063 7.57101 18.9797 7.65539C18.8859 7.71163 17.4375 9.09445 15.7688 10.7304C14.0813 12.3757 12.5859 13.8007 12.4078 13.9273C11.7375 14.4007 11.0344 14.5976 10.1484 14.5694C9.10313 14.5319 8.4 14.1991 7.49531 13.3132C7.19063 13.0179 5.7375 11.5507 4.26562 10.0554C2.78906 8.56007 1.50938 7.28976 1.41563 7.23351C1.1625 7.07882 0.703125 7.08351 0.435938 7.24757Z" fill="white"/>
<path d="M0.491827 18.4639C0.266827 18.567 0.16839 18.6702 0.0699524 18.9045C-0.0753601 19.2514 0.0230774 19.8092 0.26214 20.0248C0.534015 20.2639 -0.173797 20.2498 12.009 20.2498C22.884 20.2498 23.3293 20.2452 23.5075 20.1608C23.7325 20.0577 23.8309 19.9545 23.9293 19.7202C24.0746 19.3733 23.9762 18.8155 23.7371 18.5998C23.4653 18.3608 24.1731 18.3748 11.9903 18.3748C1.11527 18.3748 0.669952 18.3795 0.491827 18.4639Z" fill="white"/>
<path d="M0.491827 22.2139C0.266827 22.317 0.16839 22.4202 0.0699524 22.6545C-0.0753601 23.0014 0.0230774 23.5592 0.26214 23.7748C0.534015 24.0139 -0.178485 23.9998 12.0278 23.9998H23.3575L23.559 23.8827C23.8543 23.7092 23.9996 23.4373 23.9996 23.0623C23.9996 22.6873 23.8543 22.4155 23.559 22.242L23.3575 22.1248H12.0184C1.11527 22.1248 0.669952 22.1295 0.491827 22.2139Z" fill="white"/>
</g>
<defs>
<clipPath id="clip0_341_4556">
<rect width="24" height="24" fill="white"/>
</clipPath>
</defs>
</svg>
