<svg width="28" height="28" viewBox="0 0 28 28" fill="none" xmlns="http://www.w3.org/2000/svg">
<g clip-path="url(#clip0_342_4671)">
<path d="M9.84375 0.0819111C9.67969 0.125662 8.4 0.727224 7.00547 1.42723L4.47344 2.68504L4.04141 3.1116C3.70234 3.44519 3.57109 3.62566 3.39062 3.99754C3.18281 4.43504 3.11172 4.75222 2.02344 9.96941C0.995312 14.8913 0.875 15.5311 0.875 15.996C0.875 16.4882 0.929688 16.7452 2.03984 21.1749C2.94766 24.8061 3.24844 25.9272 3.39609 26.2225C3.64766 26.7366 4.30938 27.4093 4.81797 27.6554C5.55625 28.0163 5.21172 27.9999 11.8125 27.9999C18.4078 27.9999 18.0797 28.0163 18.7961 27.6608C19.5289 27.2999 19.6602 27.1358 22.1539 23.3952C23.4172 21.503 24.5219 19.8132 24.6094 19.6382C24.8773 19.1132 24.9539 18.7139 24.9211 17.9921L24.8937 17.3632L23.7234 13.8632C23.0781 11.9382 22.4766 10.2155 22.3891 10.035C22.2797 9.81082 22.0883 9.57019 21.793 9.27488C21.4156 8.90301 21.0328 8.64051 18.9492 7.33348L16.543 5.81863L14.9187 3.49441C13.1633 0.989725 12.8844 0.65613 12.2391 0.338943C12.0477 0.245974 11.7469 0.13113 11.5664 0.0819111C11.1617 -0.0219936 10.2539 -0.0219936 9.84375 0.0819111ZM11.2383 2.36785C11.4187 2.46629 11.7469 2.90379 13.0813 4.81238C14.1914 6.39832 14.8094 7.22957 15.0281 7.43738C15.2305 7.62879 16.193 8.2741 17.6422 9.18191C20.2344 10.8225 20.2617 10.8389 20.382 11.0686C20.4312 11.1616 20.9727 12.7366 21.5852 14.5741C22.8211 18.2819 22.8156 18.2546 22.5367 18.7304C22.4438 18.878 21.3937 20.4694 20.1961 22.2577C18.2109 25.2272 17.9977 25.5225 17.7734 25.6483L17.5273 25.785H11.8125H6.09766L5.86797 25.6593C5.41953 25.4241 5.44141 25.4897 4.23281 20.6608C3.62031 18.2163 3.11719 16.1054 3.11719 15.9741C3.11719 15.6788 5.27187 5.29363 5.39219 5.02019C5.44141 4.91082 5.53437 4.76863 5.6 4.71394C5.66016 4.65379 6.77578 4.0741 8.06641 3.42879C10.2594 2.3241 10.4398 2.24754 10.7188 2.24754C10.932 2.24207 11.0797 2.28035 11.2383 2.36785Z" fill="white"/>
<path d="M9.81568 8.41639C8.69458 8.74452 7.80865 9.64686 7.5188 10.757C7.40943 11.1672 7.41489 12.0094 7.52427 12.4305C7.81411 13.557 8.75474 14.4976 9.87583 14.7875C10.3079 14.8969 11.1227 14.9023 11.5547 14.7875C12.6922 14.4922 13.6165 13.568 13.9118 12.4305C14.0266 12.0039 14.0266 11.1836 13.9118 10.757C13.6165 9.61952 12.6922 8.6953 11.5547 8.39999C11.1063 8.28514 10.2422 8.29061 9.81568 8.41639ZM11.1993 10.6586C11.5657 10.8445 11.7571 11.1672 11.7571 11.5937C11.7571 12.2008 11.3251 12.6328 10.718 12.6328C10.111 12.6328 9.67896 12.2008 9.67896 11.5937C9.67896 10.9867 10.1001 10.5601 10.7071 10.5547C10.8876 10.5547 11.0735 10.593 11.1993 10.6586Z" fill="white"/>
<path d="M16.6961 12.8297C16.357 13.032 16.1875 13.3492 16.1875 13.7812C16.1875 14.4539 16.6086 14.875 17.2812 14.875C17.9539 14.875 18.375 14.4539 18.375 13.7812C18.375 13.1086 17.9539 12.6875 17.2758 12.6875C16.9969 12.6875 16.8766 12.7148 16.6961 12.8297Z" fill="white"/>
<path d="M14.5086 17.2047C14.1695 17.407 14 17.7242 14 18.1562C14 18.7961 14.3828 19.1953 15.0664 19.2773C15.7555 19.3594 16.1328 19.7313 16.1328 20.3438C16.1328 20.9508 15.7008 21.3828 15.0938 21.3828C14.4813 21.3828 14.1094 21.0055 14.0273 20.3164C13.9453 19.6328 13.5461 19.25 12.9062 19.25C12.4688 19.25 12.1516 19.4195 11.9492 19.7641C11.8344 19.9609 11.8125 20.0648 11.8125 20.4203C11.8125 21.2789 12.1406 22.05 12.7641 22.668C13.4258 23.3242 14.1586 23.625 15.0938 23.625C16.0344 23.625 16.7781 23.3187 17.4234 22.6734C18.0687 22.0281 18.375 21.2844 18.375 20.3438C18.375 19.4031 18.0687 18.6594 17.4234 18.0141C16.7945 17.3852 16.0289 17.0625 15.1703 17.0625C14.8039 17.0625 14.7 17.0844 14.5086 17.2047Z" fill="white"/>
<path d="M7.94609 19.3922C7.60703 19.5945 7.4375 19.9117 7.4375 20.3438C7.4375 21.0164 7.85859 21.4375 8.53125 21.4375C9.20391 21.4375 9.625 21.0164 9.625 20.3438C9.625 19.6711 9.20391 19.25 8.52578 19.25C8.24687 19.25 8.12656 19.2773 7.94609 19.3922Z" fill="white"/>
<path d="M18.8836 0.142188C18.7523 0.21875 18.5883 0.382812 18.5117 0.514062L18.375 0.749219V2.46094V4.17266L18.5117 4.40781C18.7141 4.75234 19.0312 4.92188 19.4688 4.92188C19.9062 4.92188 20.2234 4.75234 20.4258 4.40781L20.5625 4.17266V2.46094V0.749219L20.4258 0.514062C20.2234 0.169531 19.9062 0 19.4633 0C19.1844 0 19.0641 0.0273438 18.8836 0.142188Z" fill="white"/>
<path d="M24.9369 4.01933C24.133 4.17792 23.3619 4.53339 22.6783 5.04745C22.2681 5.35917 22.0658 5.64355 22.0111 5.98808C21.8963 6.69355 22.558 7.36073 23.258 7.25136C23.5041 7.21308 23.8431 7.04901 23.947 6.92323C24.2205 6.58964 25.2049 6.2123 25.9213 6.15761C26.7361 6.09198 27.1244 5.73105 27.1244 5.03105C27.1244 4.59355 26.9549 4.27636 26.6103 4.07401C26.4025 3.9537 26.3205 3.9373 25.8338 3.94276C25.5384 3.94276 25.1338 3.98105 24.9369 4.01933Z" fill="white"/>
</g>
<defs>
<clipPath id="clip0_342_4671">
<rect width="28" height="28" fill="white"/>
</clipPath>
</defs>
</svg>
