<svg width="28" height="28" viewBox="0 0 28 28" fill="none" xmlns="http://www.w3.org/2000/svg">
<path d="M6.50792 21.4961H6.51962M21.5105 6.53793H21.5222M6.51962 18.4772L7.33498 20.6807L9.53847 21.4961L7.33498 22.3115L6.51962 24.5149L5.70425 22.3115L3.50077 21.4961L5.70425 20.6807L6.51962 18.4772ZM7.09264 21.4961C7.09264 21.819 6.83085 22.0808 6.50792 22.0808C6.18499 22.0808 5.92321 21.819 5.92321 21.4961C5.92321 21.1732 6.18499 20.9114 6.50792 20.9114C6.83085 20.9114 7.09264 21.1732 7.09264 21.4961ZM21.5222 3.51908L22.3376 5.72256L24.5411 6.53793L22.3376 7.35329L21.5222 9.55678L20.7069 7.35329L18.5034 6.53793L20.7069 5.72256L21.5222 3.51908ZM22.0952 6.53793C22.0952 6.86086 21.8335 7.12264 21.5105 7.12264C21.1876 7.12264 20.9258 6.86086 20.9258 6.53793C20.9258 6.215 21.1876 5.95322 21.5105 5.95322C21.8335 5.95322 22.0952 6.215 22.0952 6.53793ZM5.66638 6.04989L3.23318 7.33992C2.72858 7.60745 2.47628 7.74121 2.39376 7.91959C2.32187 8.07497 2.32187 8.25408 2.39376 8.40946C2.47628 8.58784 2.72858 8.7216 3.23318 8.98913L5.66638 10.2792C5.76046 10.329 5.8075 10.354 5.8486 10.3863C5.88507 10.415 5.91799 10.4479 5.94666 10.4844C5.97897 10.5255 6.00391 10.5725 6.05379 10.6666L7.34382 13.0998C7.61135 13.6044 7.74512 13.8567 7.9235 13.9392C8.07887 14.0111 8.25799 14.0111 8.41336 13.9392C8.59174 13.8567 8.72551 13.6044 8.99304 13.0998L10.2831 10.6666C10.333 10.5725 10.3579 10.5255 10.3902 10.4844C10.4189 10.4479 10.4518 10.415 10.4883 10.3863C10.5294 10.354 10.5764 10.329 10.6705 10.2792L13.1037 8.98913C13.6083 8.7216 13.8606 8.58784 13.9431 8.40946C14.015 8.25408 14.015 8.07497 13.9431 7.91959C13.8606 7.74121 13.6083 7.60745 13.1037 7.33992L10.6705 6.04989C10.5764 6 10.5294 5.97506 10.4883 5.94276C10.4518 5.91409 10.4189 5.88116 10.3902 5.84469C10.3579 5.8036 10.333 5.75655 10.2831 5.66247L8.99304 3.22928C8.72551 2.72468 8.59174 2.47238 8.41336 2.38985C8.25799 2.31797 8.07887 2.31797 7.9235 2.38985C7.74512 2.47238 7.61135 2.72468 7.34382 3.22928L6.05379 5.66247C6.00391 5.75655 5.97897 5.8036 5.94666 5.84469C5.91799 5.88116 5.88507 5.91409 5.8486 5.94276C5.8075 5.97506 5.76046 6 5.66638 6.04989ZM17.3899 17.7308L14.9567 19.0208C14.4521 19.2884 14.1998 19.4221 14.1173 19.6005C14.0454 19.7559 14.0454 19.935 14.1173 20.0904C14.1998 20.2687 14.4521 20.4025 14.9567 20.67L17.3899 21.9601C17.484 22.0099 17.531 22.0349 17.5721 22.0672C17.6086 22.0959 17.6415 22.1288 17.6702 22.1653C17.7025 22.2064 17.7274 22.2534 17.7773 22.3475L19.0674 24.7807C19.3349 25.2853 19.4687 25.5376 19.647 25.6201C19.8024 25.692 19.9815 25.692 20.1369 25.6201C20.3153 25.5376 20.449 25.2853 20.7166 24.7807L22.0066 22.3475C22.0565 22.2534 22.0814 22.2064 22.1137 22.1653C22.1424 22.1288 22.1753 22.0959 22.2118 22.0672C22.2529 22.0349 22.2999 22.0099 22.394 21.9601L24.8272 20.67C25.3318 20.4025 25.5841 20.2687 25.6666 20.0904C25.7385 19.935 25.7385 19.7559 25.6666 19.6005C25.5841 19.4221 25.3318 19.2884 24.8272 19.0208L22.394 17.7308C22.2999 17.6809 22.2529 17.656 22.2118 17.6237C22.1753 17.595 22.1424 17.5621 22.1137 17.5256C22.0814 17.4845 22.0565 17.4375 22.0066 17.3434L20.7166 14.9102C20.449 14.4056 20.3153 14.1533 20.1369 14.0708C19.9815 13.9989 19.8024 13.9989 19.647 14.0708C19.4687 14.1533 19.3349 14.4056 19.0674 14.9102L17.7773 17.3434C17.7274 17.4375 17.7025 17.4845 17.6702 17.5256C17.6415 17.5621 17.6086 17.595 17.5721 17.6237C17.531 17.656 17.484 17.6809 17.3899 17.7308Z" stroke="white" stroke-width="2" stroke-linecap="round" stroke-linejoin="round"/>
</svg>
