<svg width="28" height="28" viewBox="0 0 28 28" fill="none" xmlns="http://www.w3.org/2000/svg">
<path d="M20.8429 11.1273L21.3835 10.8814C23.1641 10.0717 24.0544 9.66676 24.3307 9.10576C24.5707 8.6183 24.5707 8.04698 24.3307 7.55951C24.0544 6.99851 23.1641 6.59362 21.3835 5.78383L16.318 3.48012C15.4649 3.09217 15.0384 2.8982 14.5943 2.82164C14.2008 2.75379 13.7986 2.75379 13.405 2.82164C12.961 2.8982 12.5344 3.09217 11.6814 3.48012L6.61585 5.78384C4.83525 6.59362 3.94495 6.99851 3.66869 7.55951C3.42863 8.04698 3.42863 8.6183 3.66869 9.10576C3.94495 9.66676 4.83525 10.0717 6.61585 10.8814L7.16827 11.1327M20.8429 11.1273L16.318 13.1851C15.4649 13.5731 15.0384 13.7671 14.5943 13.8436C14.2008 13.9115 13.7986 13.9115 13.405 13.8436C12.961 13.7671 12.5344 13.5731 11.6814 13.1851L7.16827 11.1327M20.8429 11.1273L20.9599 11.1889L21.3835 11.3816C23.1641 12.1914 24.0544 12.5962 24.3307 13.1572C24.5707 13.6447 24.5707 14.216 24.3307 14.7035C24.0544 15.2645 23.1641 15.6694 21.3835 16.4792L20.6882 16.7954M7.16827 11.1327L6.79876 11.2984L6.61585 11.3816C4.83525 12.1914 3.94495 12.5962 3.66869 13.1572C3.42863 13.6447 3.42863 14.216 3.66869 14.7035C3.94495 15.2645 4.83525 15.6694 6.61585 16.4792L7.32387 16.8012M7.32387 16.8012L11.6814 18.7829C12.5344 19.1708 12.961 19.3648 13.405 19.4414C13.7986 19.5092 14.2008 19.5092 14.5943 19.4414C15.0384 19.3648 15.4649 19.1708 16.318 18.7829L20.6882 16.7954M7.32387 16.8012L6.79876 17.0352L6.61585 17.1183C4.83525 17.9281 3.94495 18.333 3.66869 18.894C3.42863 19.3815 3.42863 19.9528 3.66869 20.4403C3.94495 21.0013 4.83525 21.4062 6.61585 22.216L11.6814 24.5197C12.5344 24.9076 12.961 25.1016 13.405 25.1781C13.7986 25.246 14.2008 25.246 14.5943 25.1781C15.0384 25.1016 15.4649 24.9076 16.318 24.5197L21.3835 22.2159C23.1641 21.4062 24.0544 21.0013 24.3307 20.4403C24.5707 19.9528 24.5707 19.3815 24.3307 18.894C24.0544 18.333 23.1641 17.9281 21.3835 17.1183L20.9599 16.9257L20.6882 16.7954" stroke="white" stroke-width="2" stroke-linecap="round" stroke-linejoin="round"/>
</svg>
