<svg width="28" height="28" viewBox="0 0 28 28" fill="none" xmlns="http://www.w3.org/2000/svg">
<path d="M9.98386 13.9999L12.6609 16.7655L18.0149 11.2342M9.56764 4.22954C9.98827 4.24372 10.1986 4.25082 10.4015 4.2219C10.668 4.18392 10.9259 4.10013 11.1638 3.97422C11.345 3.87832 11.511 3.74896 11.8429 3.49024C12.5313 2.95378 12.8754 2.68555 13.2472 2.55884C13.7353 2.3925 14.2647 2.3925 14.7527 2.55884C15.1245 2.68555 15.4687 2.95378 16.157 3.49024C16.489 3.74896 16.6549 3.87832 16.8361 3.97422C17.074 4.10013 17.3319 4.18392 17.5984 4.2219C17.8014 4.25082 18.0117 4.24372 18.4323 4.22954C19.3045 4.20012 19.7406 4.18541 20.1159 4.30143C20.6085 4.45372 21.0368 4.7649 21.3338 5.18633C21.5601 5.50738 21.6809 5.92668 21.9225 6.76527C22.0389 7.1697 22.0972 7.37192 22.1874 7.55601C22.3059 7.7977 22.4653 8.01708 22.6585 8.20443C22.8057 8.34712 22.98 8.465 23.3287 8.70077C24.0516 9.18963 24.413 9.43406 24.6484 9.7485C24.9575 10.1613 25.121 10.6647 25.1137 11.1803C25.108 11.5731 24.9593 11.9833 24.6618 12.8037C24.5183 13.1993 24.4466 13.3972 24.4114 13.5991C24.3651 13.8643 24.3651 14.1355 24.4114 14.4006C24.4466 14.6026 24.5183 14.8004 24.6618 15.1961C24.9593 16.0165 25.108 16.4267 25.1137 16.8195C25.121 17.335 24.9575 17.8385 24.6484 18.2513C24.413 18.5657 24.0516 18.8101 23.3287 19.299C22.98 19.5348 22.8057 19.6526 22.6585 19.7953C22.4653 19.9827 22.3059 20.2021 22.1874 20.4437C22.0972 20.6278 22.0389 20.8301 21.9225 21.2345C21.6809 22.0731 21.5601 22.4924 21.3338 22.8134C21.0368 23.2349 20.6085 23.546 20.1159 23.6983C19.7406 23.8143 19.3045 23.7996 18.4323 23.7702C18.0117 23.756 17.8014 23.7489 17.5984 23.7779C17.3319 23.8158 17.074 23.8996 16.8361 24.0255C16.6549 24.1214 16.489 24.2508 16.157 24.5095C15.4687 25.046 15.1245 25.3142 14.7527 25.4409C14.2647 25.6073 13.7353 25.6073 13.2472 25.4409C12.8754 25.3142 12.5313 25.046 11.8429 24.5095C11.511 24.2508 11.345 24.1214 11.1638 24.0255C10.9259 23.8996 10.668 23.8158 10.4015 23.7779C10.1986 23.7489 9.98827 23.756 9.56764 23.7702C8.69545 23.7996 8.25935 23.8143 7.88408 23.6983C7.39147 23.546 6.96318 23.2349 6.66612 22.8134C6.43981 22.4924 6.31904 22.0731 6.0775 21.2345C5.96101 20.8301 5.90276 20.6278 5.81254 20.4438C5.69408 20.2021 5.53469 19.9827 5.34143 19.7953C5.19423 19.6526 5.01992 19.5348 4.67128 19.299C3.94837 18.8101 3.58692 18.5657 3.35151 18.2513C3.0425 17.8385 2.8789 17.335 2.88629 16.8195C2.89191 16.4267 3.04066 16.0165 3.33816 15.1961C3.48164 14.8004 3.55338 14.6026 3.58858 14.4006C3.63481 14.1355 3.63481 13.8643 3.58858 13.5991C3.55338 13.3972 3.48164 13.1993 3.33816 12.8037C3.04066 11.9833 2.89191 11.5731 2.88629 11.1803C2.8789 10.6647 3.0425 10.1613 3.35151 9.7485C3.58692 9.43406 3.94837 9.18963 4.67128 8.70077C5.01992 8.465 5.19423 8.34712 5.34143 8.20443C5.53469 8.01708 5.69408 7.7977 5.81254 7.55601C5.90276 7.37192 5.96101 7.1697 6.0775 6.76527C6.31904 5.92668 6.43981 5.50739 6.66612 5.18633C6.96318 4.7649 7.39147 4.45372 7.88408 4.30143C8.25935 4.18541 8.69545 4.20012 9.56764 4.22954Z" stroke="white" stroke-width="2" stroke-linecap="round" stroke-linejoin="round"/>
</svg>
