<svg width="28" height="28" viewBox="0 0 28 28" fill="none" xmlns="http://www.w3.org/2000/svg">
<path d="M9.98388 14.0003L12.6609 16.766L18.015 11.2346M9.53247 4.44717C10.0608 4.53586 10.325 4.5802 10.5771 4.5493C10.8004 4.52193 11.0162 4.45179 11.2129 4.34272C11.4351 4.21953 11.6227 4.02837 11.9981 3.64605C12.6984 2.9327 13.0485 2.57603 13.4525 2.44312C13.8077 2.32625 14.1911 2.32625 14.5463 2.44312C14.9503 2.57603 15.3004 2.9327 16.0008 3.64605C16.3761 4.02837 16.5638 4.21953 16.7859 4.34272C16.9826 4.45179 17.1985 4.52193 17.4217 4.5493C17.6738 4.5802 17.938 4.53586 18.4664 4.44718C19.4522 4.2817 19.9452 4.19896 20.3501 4.32888C20.7062 4.44314 21.0163 4.66846 21.235 4.97182C21.4837 5.31678 21.5573 5.81115 21.7046 6.7999C21.7836 7.32983 21.823 7.59479 21.9303 7.82501C22.0253 8.02886 22.1587 8.21249 22.3233 8.36584C22.5091 8.53903 22.7489 8.65845 23.2284 8.89727C24.1233 9.34288 24.5707 9.56568 24.8219 9.9088C25.0429 10.2105 25.1613 10.5751 25.16 10.9491C25.1584 11.3743 24.9274 11.8176 24.4654 12.7041C24.2177 13.1792 24.0939 13.4167 24.0454 13.6661C24.0024 13.8868 24.0024 14.1138 24.0454 14.3346C24.0939 14.5839 24.2177 14.8214 24.4654 15.2966C24.9274 16.183 25.1584 16.6263 25.16 17.0515C25.1613 17.4255 25.0429 17.7901 24.8219 18.0918C24.5707 18.4349 24.1233 18.6577 23.2284 19.1033C22.7489 19.3422 22.5091 19.4616 22.3233 19.6348C22.1587 19.7881 22.0253 19.9718 21.9303 20.1756C21.823 20.4058 21.7836 20.6708 21.7046 21.2007C21.5573 22.1895 21.4837 22.6838 21.235 23.0288C21.0163 23.3322 20.7062 23.5575 20.3501 23.6717C19.9452 23.8017 19.4522 23.7189 18.4664 23.5534C17.938 23.4648 17.6738 23.4204 17.4217 23.4513C17.1985 23.4787 16.9826 23.5488 16.7859 23.6579C16.5638 23.7811 16.3761 23.9722 16.0008 24.3546C15.3004 25.0679 14.9503 25.4246 14.5463 25.5575C14.1911 25.6744 13.8077 25.6744 13.4525 25.5575C13.0485 25.4246 12.6984 25.0679 11.9981 24.3546C11.6227 23.9722 11.4351 23.7811 11.2129 23.6579C11.0162 23.5488 10.8004 23.4787 10.5771 23.4513C10.325 23.4204 10.0608 23.4648 9.53247 23.5534C8.5466 23.7189 8.05366 23.8017 7.64874 23.6717C7.29264 23.5575 6.98252 23.3322 6.76382 23.0288C6.51512 22.6838 6.44149 22.1895 6.29421 21.2007C6.21528 20.6708 6.17582 20.4058 6.06851 20.1756C5.97351 19.9718 5.84009 19.7881 5.67558 19.6348C5.48978 19.4616 5.24998 19.3422 4.77039 19.1033C3.87554 18.6577 3.42812 18.4349 3.17689 18.0918C2.95596 17.7901 2.8375 17.4255 2.83888 17.0515C2.84045 16.6263 3.07146 16.183 3.53349 15.2966C3.78111 14.8214 3.90492 14.5839 3.95343 14.3346C3.99639 14.1138 3.99639 13.8868 3.95343 13.6661C3.90492 13.4167 3.78111 13.1792 3.53349 12.7041C3.07146 11.8176 2.84045 11.3743 2.83888 10.9491C2.8375 10.5751 2.95596 10.2105 3.17689 9.9088C3.42812 9.56568 3.87554 9.34288 4.77039 8.89727C5.24998 8.65845 5.48978 8.53903 5.67558 8.36584C5.84009 8.21249 5.97351 8.02886 6.06851 7.82501C6.17582 7.59479 6.21528 7.32983 6.29421 6.7999C6.44149 5.81115 6.51512 5.31678 6.76382 4.97182C6.98252 4.66846 7.29264 4.44314 7.64874 4.32888C8.05366 4.19896 8.5466 4.2817 9.53247 4.44717Z" stroke="white" stroke-width="2" stroke-linecap="round" stroke-linejoin="round"/>
</svg>
